<svg id="calendar_1_" data-name="calendar (1)" xmlns="http://www.w3.org/2000/svg" width="15.916" height="14.362" viewBox="0 0 15.916 14.362">
  <path id="Path_239712" data-name="Path 239712" d="M15.916,29.476V27.642a1.4,1.4,0,0,0-1.4-1.4h-.187v1.71a.466.466,0,1,1-.933,0V25.466a.466.466,0,0,0-.933,0v.777H9.357v1.71a.466.466,0,0,1-.933,0V25.466a.466.466,0,1,0-.933,0v.777H4.383v1.71a.466.466,0,1,1-.933,0V25.466a.466.466,0,1,0-.933,0v.777H1.4a1.4,1.4,0,0,0-1.4,1.4v1.834Z" transform="translate(0 -25)" fill="#fee101"/>
  <path id="Path_239713" data-name="Path 239713" d="M0,199v7.554a1.4,1.4,0,0,0,1.4,1.4H14.517a1.4,1.4,0,0,0,1.4-1.4V199Zm4.476,6.466H3.482a.466.466,0,0,1,0-.933h.995a.466.466,0,0,1,0,.933Zm0-1.99H3.482a.466.466,0,1,1,0-.933h.995a.466.466,0,0,1,0,.933Zm0-1.99H3.482a.466.466,0,1,1,0-.933h.995a.466.466,0,0,1,0,.933Zm3.979,3.979H7.461a.466.466,0,0,1,0-.933h.995a.466.466,0,1,1,0,.933Zm0-1.99H7.461a.466.466,0,0,1,0-.933h.995a.466.466,0,0,1,0,.933Zm0-1.99H7.461a.466.466,0,0,1,0-.933h.995a.466.466,0,0,1,0,.933Zm3.979,3.979H11.44a.466.466,0,0,1,0-.933h.995a.466.466,0,0,1,0,.933Zm0-1.99H11.44a.466.466,0,0,1,0-.933h.995a.466.466,0,0,1,0,.933Zm0-1.99H11.44a.466.466,0,0,1,0-.933h.995a.466.466,0,0,1,0,.933Z" transform="translate(0 -193.591)" fill="#fee101"/>
</svg>
