<svg xmlns="http://www.w3.org/2000/svg" width="31.992" height="30.743" viewBox="0 0 31.992 30.743">
  <g id="calendar" transform="translate(0 0)">
    <g id="Group_56819" data-name="Group 56819" transform="translate(0 7.748)">
      <path id="Path_203954" data-name="Path 203954" d="M0,134v20.5a2.5,2.5,0,0,0,2.5,2.5H29.493a2.5,2.5,0,0,0,2.5-2.5V134Z" transform="translate(0 -134)" fill="#f4fbff"/>
    </g>
    <g id="Group_56820" data-name="Group 56820" transform="translate(0 0.75)">
      <path id="Path_203955" data-name="Path 203955" d="M29.493,22H2.5A2.5,2.5,0,0,0,0,24.5V29H31.992V24.5A2.5,2.5,0,0,0,29.493,22ZM4,27a1.5,1.5,0,1,1,1.5-1.5A1.5,1.5,0,0,1,4,27Zm23.994,0a1.5,1.5,0,1,1,1.5-1.5A1.5,1.5,0,0,1,27.993,27Z" transform="translate(0 -22)" fill="#fee101"/>
    </g>
    <g id="Group_56836" data-name="Group 56836" transform="translate(4.672 11.574)">
      <g id="Group_56821" data-name="Group 56821" transform="translate(9.998)">
        <path id="Path_203956" data-name="Path 203956" d="M226,206a2,2,0,1,0,2,2A2,2,0,0,0,226,206Z" transform="translate(-224 -206)" fill="#fee101"/>
      </g>
      <g id="Group_56822" data-name="Group 56822" transform="translate(4.999)">
        <path id="Path_203957" data-name="Path 203957" d="M146,206a2,2,0,1,0,2,2A2,2,0,0,0,146,206Z" transform="translate(-144 -206)" fill="#fee101"/>
      </g>
      <g id="Group_56823" data-name="Group 56823">
        <path id="Path_203958" data-name="Path 203958" d="M66,206a2,2,0,1,0,2,2A2,2,0,0,0,66,206Z" transform="translate(-64 -206)" fill="#fee101"/>
      </g>
      <g id="Group_56824" data-name="Group 56824" transform="translate(14.996)">
        <path id="Path_203959" data-name="Path 203959" d="M306,206a2,2,0,1,0,2,2A2,2,0,0,0,306,206Z" transform="translate(-304 -206)" fill="#fee101"/>
      </g>
      <g id="Group_56825" data-name="Group 56825" transform="translate(19.995)">
        <path id="Path_203960" data-name="Path 203960" d="M386,210a2,2,0,1,0-2-2A2,2,0,0,0,386,210Z" transform="translate(-384 -206)" fill="#fee101"/>
      </g>
      <g id="Group_56826" data-name="Group 56826" transform="translate(9.998 4.999)">
        <path id="Path_203961" data-name="Path 203961" d="M226,286a2,2,0,1,0,2,2A2,2,0,0,0,226,286Z" transform="translate(-224 -286)" fill="#fee101"/>
      </g>
      <g id="Group_56827" data-name="Group 56827" transform="translate(4.999 4.999)">
        <path id="Path_203962" data-name="Path 203962" d="M146,286a2,2,0,1,0,2,2A2,2,0,0,0,146,286Z" transform="translate(-144 -286)" fill="#fee101"/>
      </g>
      <g id="Group_56828" data-name="Group 56828" transform="translate(0 4.999)">
        <path id="Path_203963" data-name="Path 203963" d="M66,286a2,2,0,1,0,2,2A2,2,0,0,0,66,286Z" transform="translate(-64 -286)" fill="#fee101"/>
      </g>
      <g id="Group_56829" data-name="Group 56829" transform="translate(14.996 4.999)">
        <path id="Path_203964" data-name="Path 203964" d="M306,286a2,2,0,1,0,2,2A2,2,0,0,0,306,286Z" transform="translate(-304 -286)" fill="#fee101"/>
      </g>
      <g id="Group_56830" data-name="Group 56830" transform="translate(19.995 4.999)">
        <path id="Path_203965" data-name="Path 203965" d="M386,286a2,2,0,1,0,2,2A2,2,0,0,0,386,286Z" transform="translate(-384 -286)" fill="#fee101"/>
      </g>
      <g id="Group_56831" data-name="Group 56831" transform="translate(9.998 9.998)">
        <path id="Path_203966" data-name="Path 203966" d="M226,366a2,2,0,1,0,2,2A2,2,0,0,0,226,366Z" transform="translate(-224 -366)" fill="#fee101"/>
      </g>
      <g id="Group_56832" data-name="Group 56832" transform="translate(4.999 9.998)">
        <path id="Path_203967" data-name="Path 203967" d="M146,366a2,2,0,1,0,2,2A2,2,0,0,0,146,366Z" transform="translate(-144 -366)" fill="#fee101"/>
      </g>
      <g id="Group_56833" data-name="Group 56833" transform="translate(0 9.998)">
        <path id="Path_203968" data-name="Path 203968" d="M66,366a2,2,0,1,0,2,2A2,2,0,0,0,66,366Z" transform="translate(-64 -366)" fill="#fee101"/>
      </g>
      <g id="Group_56834" data-name="Group 56834" transform="translate(14.996 9.998)">
        <path id="Path_203969" data-name="Path 203969" d="M306,366a2,2,0,1,0,2,2A2,2,0,0,0,306,366Z" transform="translate(-304 -366)" fill="#fee101"/>
      </g>
      <g id="Group_56835" data-name="Group 56835" transform="translate(19.995 9.998)">
        <path id="Path_203970" data-name="Path 203970" d="M386,366a2,2,0,1,0,2,2A2,2,0,0,0,386,366Z" transform="translate(-384 -366)" fill="#fee101"/>
      </g>
    </g>
    <g id="Group_56838" data-name="Group 56838" transform="translate(3.249)">
      <g id="Group_56837" data-name="Group 56837">
        <path id="Path_203971" data-name="Path 203971" d="M52.75,15a.75.75,0,0,1-.75-.75v-3.5a.75.75,0,0,1,1.5,0v3.5A.75.75,0,0,1,52.75,15Z" transform="translate(-52 -10)"/>
      </g>
    </g>
    <g id="Group_56840" data-name="Group 56840" transform="translate(27.243)">
      <g id="Group_56839" data-name="Group 56839">
        <path id="Path_203972" data-name="Path 203972" d="M436.75,15a.75.75,0,0,1-.75-.75v-3.5a.75.75,0,1,1,1.5,0v3.5A.75.75,0,0,1,436.75,15Z" transform="translate(-436 -10)"/>
      </g>
    </g>
  </g>
</svg>
