<svg id="chat_1_" data-name="chat (1)" xmlns="http://www.w3.org/2000/svg" width="18.865" height="17.687" viewBox="0 0 18.865 17.687">
  <g id="Group_56910" data-name="Group 56910">
    <g id="Group_56909" data-name="Group 56909" transform="translate(0 0)">
      <path id="Path_203984" data-name="Path 203984" d="M13.891,15.988H1.658A1.66,1.66,0,0,0,0,17.646v8.843a1.66,1.66,0,0,0,1.658,1.658H3.316v2.764a.553.553,0,0,0,.943.391L7.252,28.31a.552.552,0,0,1,.391-.162h6.248a1.66,1.66,0,0,0,1.658-1.658V17.646A1.66,1.66,0,0,0,13.891,15.988ZM2.764,19.3h7.812a.553.553,0,0,1,0,1.105H2.764a.553.553,0,0,1,0-1.105Zm5.6,5.527h-5.6a.553.553,0,1,1,0-1.105h5.6a.553.553,0,1,1,0,1.105Zm4.422-2.211H2.764a.553.553,0,1,1,0-1.105H12.786a.553.553,0,1,1,0,1.105Z" transform="translate(0 -15.988)" fill="#fee101"/>
    </g>
  </g>
  <g id="Group_56912" data-name="Group 56912" transform="translate(6.766 2.211)">
    <g id="Group_56911" data-name="Group 56911">
      <path id="Path_203985" data-name="Path 203985" d="M194.072,75.989h-.545V84.28a2.773,2.773,0,0,1-2.771,2.764H184.81l-1.179,1.1h4.685l3.154,3.162a.553.553,0,0,0,.943-.391V88.141h1.658a1.654,1.654,0,0,0,1.658-1.651V77.647A1.66,1.66,0,0,0,194.072,75.989Z" transform="translate(-183.631 -75.989)" fill="#fee101"/>
    </g>
  </g>
</svg>
