<svg id="clock-1" xmlns="http://www.w3.org/2000/svg" width="17.581" height="17.51" viewBox="0 0 17.581 17.51">
  <path id="Path_204003" data-name="Path 204003" d="M8.729,0A8.729,8.729,0,1,1,0,8.729,8.729,8.729,0,0,1,8.729,0Z" transform="translate(0 0.051)" fill="#fee101"/>
  <path id="Path_201986" data-name="Path 201986" d="M242.85,0q-.238,0-.472.012a8.805,8.805,0,0,1,8.4,8.742,8.805,8.805,0,0,1-8.4,8.742q.234.012.472.012a8.812,8.812,0,0,0,8.869-8.755A8.812,8.812,0,0,0,242.85,0Z" transform="translate(-234.137 0)" fill="#fee101"/>
  <ellipse id="Ellipse_3144" data-name="Ellipse 3144" cx="6.911" cy="6.911" rx="6.911" ry="6.911" transform="translate(1.802 1.958)" fill="#f4fbff"/>
  <path id="Path_201987" data-name="Path 201987" d="M240.163,56.513c-.191,0-.381.008-.568.023a6.911,6.911,0,0,1,0,13.775q.281.023.568.023a6.911,6.911,0,0,0,0-13.822Z" transform="translate(-231.451 -54.555)" fill="#daf1f4"/>
  <g id="Group_54654" data-name="Group 54654" transform="translate(3.001 3.157)">
    <g id="Group_54646" data-name="Group 54646" transform="translate(5.444)">
      <path id="Path_201988" data-name="Path 201988" d="M248.542,92.047a.268.268,0,0,1-.268-.268v-.393a.268.268,0,0,1,.535,0v.393A.268.268,0,0,1,248.542,92.047Z" transform="translate(-248.274 -91.119)" fill="#2b4d66"/>
    </g>
    <g id="Group_54647" data-name="Group 54647" transform="translate(9.002 1.601)">
      <path id="Path_201989" data-name="Path 201989" d="M351.228,138.136a.268.268,0,0,1-.189-.457l.278-.278a.268.268,0,1,1,.379.379l-.278.278A.267.267,0,0,1,351.228,138.136Z" transform="translate(-350.96 -137.323)" fill="#2b4d66"/>
    </g>
    <g id="Group_54648" data-name="Group 54648" transform="translate(10.467 5.444)">
      <path id="Path_201990" data-name="Path 201990" d="M393.91,248.81h-.393a.268.268,0,0,1,0-.535h.393a.268.268,0,1,1,0,.535Z" transform="translate(-393.249 -248.275)" fill="#2b4d66"/>
    </g>
    <g id="Group_54649" data-name="Group 54649" transform="translate(8.981 9.002)">
      <path id="Path_201991" data-name="Path 201991" d="M350.911,351.775a.267.267,0,0,1-.189-.078l-.278-.278a.268.268,0,1,1,.379-.379l.278.278a.268.268,0,0,1-.189.457Z" transform="translate(-350.365 -350.962)" fill="#2b4d66"/>
    </g>
    <g id="Group_54650" data-name="Group 54650" transform="translate(5.415 10.467)">
      <path id="Path_201992" data-name="Path 201992" d="M247.7,394.179a.268.268,0,0,1-.268-.268v-.393a.268.268,0,1,1,.535,0v.393A.268.268,0,0,1,247.7,394.179Z" transform="translate(-247.432 -393.251)" fill="#2b4d66"/>
    </g>
    <g id="Group_54651" data-name="Group 54651" transform="translate(1.58 8.981)">
      <path id="Path_201993" data-name="Path 201993" d="M136.994,351.179a.268.268,0,0,1-.189-.457l.278-.278a.268.268,0,0,1,.379.379l-.278.278A.267.267,0,0,1,136.994,351.179Z" transform="translate(-136.726 -350.366)" fill="#2b4d66"/>
    </g>
    <g id="Group_54652" data-name="Group 54652" transform="translate(0 5.415)">
      <path id="Path_201994" data-name="Path 201994" d="M91.778,247.969h-.393a.268.268,0,1,1,0-.535h.393a.268.268,0,1,1,0,.535Z" transform="translate(-91.117 -247.434)" fill="#2b4d66"/>
    </g>
    <g id="Group_54653" data-name="Group 54653" transform="translate(1.601 1.58)">
      <path id="Path_201995" data-name="Path 201995" d="M137.867,137.541a.267.267,0,0,1-.189-.078l-.278-.278a.268.268,0,1,1,.379-.379l.278.278a.268.268,0,0,1-.189.457Z" transform="translate(-137.322 -136.728)" fill="#2b4d66"/>
    </g>
  </g>
  <g id="Group_54655" data-name="Group 54655" transform="translate(6.172 4.928)">
    <path id="Path_201996" data-name="Path 201996" d="M185.195,146.459h-2.273a.268.268,0,0,1,0-.535h2.006v-3.405a.268.268,0,1,1,.535,0v3.673A.268.268,0,0,1,185.195,146.459Z" transform="translate(-182.654 -142.251)" fill="#2b4d66"/>
  </g>
  <g id="Group_54656" data-name="Group 54656" transform="translate(8.445 8.601)">
    <path id="Path_201997" data-name="Path 201997" d="M251.286,250.219a.267.267,0,0,1-.122-.03l-2.746-1.412a.268.268,0,1,1,.245-.476l2.746,1.412a.268.268,0,0,1-.123.506Z" transform="translate(-248.272 -248.271)" fill="#da4a54"/>
  </g>
  <ellipse id="Ellipse_3145" data-name="Ellipse 3145" cx="0.714" cy="0.714" rx="0.714" ry="0.714" transform="translate(7.998 8.154)" fill="#365e7d"/>
</svg>
