<svg xmlns="http://www.w3.org/2000/svg" width="131.983" height="138.204" viewBox="0 0 131.983 138.204">
  <g id="Group_40" data-name="Group 40" transform="translate(-238.385 -77.635)">
    <rect id="Rectangle_2" data-name="Rectangle 2" width="94.422" height="63.858" rx="31.929" transform="translate(238.637 142.04)" fill="#774115"/>
    <path id="Path_1" data-name="Path 1" d="M327.049,592.988H248.173a7.773,7.773,0,0,0-7.773,7.773v48.312a7.765,7.765,0,0,0,3.418,6.439,7.73,7.73,0,0,1-1.636-4.758V602.442a7.773,7.773,0,0,1,7.773-7.773h78.876A7.736,7.736,0,0,1,333.186,596,7.752,7.752,0,0,0,327.049,592.988Z" transform="translate(-1.763 -450.948)" fill="#632c0e"/>
    <rect id="Rectangle_3" data-name="Rectangle 3" width="87.269" height="58.186" rx="29.093" transform="translate(243.296 146.685)" fill="#e2e7ea"/>
    <rect id="Rectangle_4" data-name="Rectangle 4" width="85.013" height="58.186" rx="29.093" transform="translate(244.469 148.687)" fill="#ced5d8"/>
    <path id="Path_2" data-name="Path 2" d="M964.241,845.836s4.732-4.734,4.879-6.789c.126-1.756.036-13.705.008-17.131A.924.924,0,0,0,968.2,821h0s-.037,8.987-3.962,8.987Z" transform="translate(-635.144 -650.463)" fill="#824b19"/>
    <g id="Group_1" data-name="Group 1" transform="translate(329.097 170.536)" opacity="0.3" style="mix-blend-mode: multiply;isolation: isolate">
      <path id="Path_3" data-name="Path 3" d="M964.241,845.836s4.732-4.734,4.879-6.789c.126-1.756.036-13.705.008-17.131A.924.924,0,0,0,968.2,821h0s-.037,8.987-3.962,8.987Z" transform="translate(-964.241 -820.999)" fill="#9d6228"/>
    </g>
    <g id="Group_2" data-name="Group 2" transform="translate(333.058 172.116)" opacity="0.1" style="mix-blend-mode: multiply;isolation: isolate">
      <path id="Path_4" data-name="Path 4" d="M996.849,850.114a5.087,5.087,0,0,1-.918,2.069v-13.7a16.929,16.929,0,0,0,.931-4.836C996.9,837.73,996.966,848.454,996.849,850.114Z" transform="translate(-995.931 -833.644)" fill="#9d6228"/>
    </g>
    <g id="Group_4" data-name="Group 4" transform="translate(292.77 125.315)">
      <rect id="Rectangle_5" data-name="Rectangle 5" width="69.561" height="35.118" transform="translate(0 25.559) rotate(-21.558)" fill="#7db200"/>
      <rect id="Rectangle_6" data-name="Rectangle 6" width="66.165" height="31.513" transform="translate(2.241 26.612) rotate(-21.558)" fill="#4b9701"/>
      <path id="Path_5" data-name="Path 5" d="M798.192,526.542l4.708,11.917a7.591,7.591,0,0,0-4.272,9.852L757.1,564.717a7.591,7.591,0,0,0-9.852-4.272l-4.708-11.917a7.591,7.591,0,0,0,4.272-9.852L788.34,522.27A7.591,7.591,0,0,0,798.192,526.542Z" transform="translate(-733.922 -514.383)" fill="#7db200"/>
      <circle id="Ellipse_1" data-name="Ellipse 1" cx="9.254" cy="9.254" r="9.254" transform="translate(25.712 29.11) rotate(-45)" fill="#4b9701"/>
      <g id="Group_3" data-name="Group 3" transform="translate(32.001 21.582)">
        <path id="Path_6" data-name="Path 6" d="M935.474,633.323l.071-.028c2.149-.849,4.677-1.263,4.845-.838q.24.607-.835,1.031c-.609.241-2.655.722-3.37,1l-.216.085,1.063,2.691c3.24-1.023,5.888-.923,6.528.7.687,1.74-1.022,3.7-4.13,5.374l.687,1.74c.136.344-.234.771-.807,1-.68.269-1.11.228-1.262-.156l-.663-1.679c-3.857,1.453-5.971,1.657-6.394.585-.168-.425.075-.755.719-1.009a10.469,10.469,0,0,1,2.516-.129,11.254,11.254,0,0,0,2.663-.7l-1.487-3.763-.108.043c-2.977,1.059-5.131.951-5.595-.222-.456-1.154,1.075-3.044,3.769-4.716l-.5-1.275c-.144-.364.3-.819.871-1.046.644-.254,1.038-.2,1.19.185Zm-1.493,2.3c-1.42.912-2.009,1.729-1.729,2.437.176.445,1.076.417,2.664-.07Zm4.93,6.4c1.727-1.08,2.569-2.3,2.273-3.05-.3-.769-1.514-.9-3.64-.41Z" transform="translate(-929.621 -631.849)" fill="#e9ff97"/>
      </g>
      <circle id="Ellipse_2" data-name="Ellipse 2" cx="4.146" cy="4.146" r="4.146" transform="matrix(0.398, -0.917, 0.917, 0.398, 50.195, 24.237)" fill="#4b9701"/>
      <circle id="Ellipse_3" data-name="Ellipse 3" cx="4.146" cy="4.146" r="4.146" transform="translate(17.039 37.208) rotate(-67.745)" fill="#4b9701"/>
    </g>
    <path id="Path_7" data-name="Path 7" d="M802.636,524.791l32.919-10.285-9.545-13.123-36.9,14.577.977,10.027Z" transform="translate(-481.903 -370.791)" fill="#494949" opacity="0.3" style="mix-blend-mode: multiply;isolation: isolate"/>
    <path id="Path_8" data-name="Path 8" d="M969.127,822.568a16.933,16.933,0,0,1-.931,4.836c-.694,1.806-1.892,3.379-3.961,3.379v-.81c1.966,0,2.953-2.246,3.453-4.5a23.94,23.94,0,0,0,.509-4.491.926.926,0,0,1,.927.918C969.123,822.1,969.127,822.322,969.127,822.568Z" transform="translate(-635.139 -650.452)" fill="#9d6228" opacity="0.3" style="mix-blend-mode: screen;isolation: isolate"/>
    <g id="Group_6" data-name="Group 6" transform="translate(268.853 107.387)">
      <rect id="Rectangle_7" data-name="Rectangle 7" width="69.561" height="35.118" transform="translate(0 34.398) rotate(-29.637)" fill="#7db200"/>
      <rect id="Rectangle_8" data-name="Rectangle 8" width="66.165" height="31.513" transform="translate(2.367 35.126) rotate(-29.637)" fill="#4b9701"/>
      <path id="Path_9" data-name="Path 9" d="M612.142,392.588l6.336,11.137a7.591,7.591,0,0,0-2.845,10.355l-38.807,22.079a7.591,7.591,0,0,0-10.355-2.845l-6.336-11.137a7.591,7.591,0,0,0,2.845-10.355l38.807-22.079A7.591,7.591,0,0,0,612.142,392.588Z" transform="translate(-550.394 -380.49)" fill="#7db200"/>
      <circle id="Ellipse_4" data-name="Ellipse 4" cx="9.254" cy="9.254" r="9.254" transform="translate(25.826 32.461) rotate(-45)" fill="#4b9701"/>
      <g id="Group_5" data-name="Group 5" transform="translate(32.059 24.944)">
        <path id="Path_10" data-name="Path 10" d="M743.779,516.946l.067-.038c2.008-1.143,4.453-1.908,4.679-1.511q.323.567-.682,1.139c-.569.324-2.527,1.088-3.2,1.468l-.2.115,1.431,2.515c3.064-1.468,5.7-1.741,6.56-.229.925,1.626-.492,3.809-3.333,5.9l.925,1.626c.183.321-.123.8-.659,1.1-.636.362-1.067.381-1.271.023l-.893-1.569c-3.614,1.981-5.678,2.48-6.249,1.478-.226-.4-.032-.758.571-1.1a10.481,10.481,0,0,1,2.473-.481,11.258,11.258,0,0,0,2.538-1.069l-2-3.517-.1.057c-2.8,1.467-4.947,1.663-5.571.567-.613-1.078.636-3.165,3.068-5.2l-.678-1.192c-.194-.34.179-.853.715-1.158.6-.342,1-.344,1.2.016Zm-1.155,2.485c-1.278,1.1-1.746,1.994-1.369,2.656.237.416,1.124.262,2.628-.444Zm5.781,5.645c1.558-1.312,2.22-2.639,1.822-3.339-.409-.719-1.625-.677-3.661.106Z" transform="translate(-738.712 -515.291)" fill="#e9ff97"/>
      </g>
      <circle id="Ellipse_5" data-name="Ellipse 5" cx="4.146" cy="4.146" r="4.146" transform="translate(48.809 24.007) rotate(-53.55)" fill="#4b9701"/>
      <circle id="Ellipse_6" data-name="Ellipse 6" cx="4.146" cy="4.146" r="4.146" transform="matrix(0.269, -0.963, 0.963, 0.269, 18.433, 43.408)" fill="#4b9701"/>
    </g>
    <path id="Path_11" data-name="Path 11" d="M630.718,347.57l10.381,6.206-26.507,34.49-23.755-.235S627.771,349.247,630.718,347.57Z" transform="translate(-308.405 -236.2)" fill="#494949" opacity="0.3" style="mix-blend-mode: multiply;isolation: isolate"/>
    <g id="Group_8" data-name="Group 8" transform="translate(257.367 95.299)">
      <rect id="Rectangle_9" data-name="Rectangle 9" width="69.561" height="35.118" transform="matrix(0.627, -0.779, 0.779, 0.627, 0, 54.169)" fill="#7db200"/>
      <rect id="Rectangle_10" data-name="Rectangle 10" width="66.165" height="31.513" transform="matrix(0.627, -0.779, 0.779, 0.627, 2.469, 53.978)" fill="#4b9701"/>
      <path id="Path_12" data-name="Path 12" d="M513.671,305.265l9.978,8.039A7.591,7.591,0,0,0,524.8,323.98l-28.01,34.769a7.591,7.591,0,0,0-10.677,1.149l-9.978-8.039a7.591,7.591,0,0,0-1.149-10.677l28.01-34.769A7.591,7.591,0,0,0,513.671,305.265Z" transform="translate(-464.398 -294.481)" fill="#7db200"/>
      <circle id="Ellipse_7" data-name="Ellipse 7" cx="9.254" cy="9.254" r="9.254" transform="translate(22.406 38.1) rotate(-45)" fill="#4b9701"/>
      <g id="Group_7" data-name="Group 7" transform="translate(28.96 30.087)">
        <path id="Path_13" data-name="Path 13" d="M624.727,462.938l.048-.06c1.45-1.8,3.443-3.408,3.8-3.121q.508.41-.217,1.31c-.411.51-1.952,1.938-2.435,2.537l-.146.18,2.253,1.815c2.312-2.489,4.665-3.71,6.02-2.618,1.457,1.174.939,3.724-.938,6.712l1.457,1.174c.288.232.177.785-.209,1.266-.459.569-.853.746-1.174.487l-1.406-1.133c-2.636,3.168-4.374,4.389-5.272,3.666-.356-.287-.307-.693.127-1.233a10.482,10.482,0,0,1,2.125-1.354,11.255,11.255,0,0,0,1.97-1.925l-3.151-2.538-.073.09c-2.066,2.391-3.993,3.361-4.975,2.569-.966-.778-.569-3.178.948-5.962l-1.068-.86c-.3-.245-.146-.859.241-1.339.434-.539.8-.686,1.126-.427Zm-.164,2.735c-.785,1.495-.893,2.5-.3,2.973.372.3,1.141-.168,2.282-1.376Zm7.448,3.133c.969-1.792,1.1-3.27.471-3.775-.644-.519-1.76-.034-3.368,1.441Z" transform="translate(-622.006 -459.724)" fill="#e9ff97"/>
      </g>
      <circle id="Ellipse_8" data-name="Ellipse 8" cx="4.146" cy="4.146" r="4.146" transform="translate(42.106 19.997) rotate(-6.21)" fill="#4b9701"/>
      <circle id="Ellipse_9" data-name="Ellipse 9" cx="4.146" cy="4.146" r="4.146" transform="translate(18.636 53.233) rotate(-64.821)" fill="#4b9701"/>
    </g>
    <circle id="Ellipse_10" data-name="Ellipse 10" cx="8.685" cy="8.685" r="8.685" transform="translate(245.048 147.542) rotate(-45)" fill="#494949" opacity="0.3" style="mix-blend-mode: multiply;isolation: isolate"/>
    <g id="Group_15" data-name="Group 15" transform="translate(246.215 136.944)">
      <circle id="Ellipse_11" data-name="Ellipse 11" cx="8.257" cy="8.257" r="8.257" transform="matrix(0.068, -0.998, 0.998, 0.068, 0, 16.477)" fill="#fec200"/>
      <g id="Group_9" data-name="Group 9" transform="translate(5.054 6.003)" opacity="0.3" style="mix-blend-mode: multiply;isolation: isolate">
        <path id="Path_14" data-name="Path 14" d="M347.466,601.421l.022.019c.649.559,1.145,1.405.971,1.607s-.356.2-.573.009c-.184-.158-.652-.8-.869-.983l-.065-.056-1.1,1.279c.861.926,1.137,1.984.475,2.753-.712.827-1.817.8-2.959.13l-.712.827a.385.385,0,0,1-.554.009c-.205-.177-.239-.357-.082-.539l.687-.8c-1.133-1.026-1.482-1.779-1.044-2.289a.342.342,0,0,1,.548-.047c.206.177.287.783.365.934a2.75,2.75,0,0,0,.644.806l1.54-1.788-.032-.028c-.846-.812-1.058-1.682-.578-2.239s1.522-.564,2.614-.059l.522-.605a.413.413,0,0,1,.584,0,.326.326,0,0,1,.06.521Zm-1.232.161c-.59-.256-1.035-.221-1.324.115-.182.211-.06.551.356,1.009Zm-2.328,3.972a1.437,1.437,0,0,0,1.67-.1c.315-.365.227-.876-.255-1.542Z" transform="translate(-341.481 -600.241)" fill="#fec200"/>
      </g>
      <g id="Group_10" data-name="Group 10" transform="translate(2.459 2.459)" opacity="0.3" style="mix-blend-mode: multiply;isolation: isolate">
        <circle id="Ellipse_12" data-name="Ellipse 12" cx="5.921" cy="5.921" r="5.921" transform="matrix(0.997, -0.073, 0.073, 0.997, 0, 0.868)" fill="#fec200"/>
      </g>
      <g id="Group_11" data-name="Group 11" transform="translate(0.482 0.482)" opacity="0.3" style="mix-blend-mode: multiply;isolation: isolate">
        <path id="Path_15" data-name="Path 15" d="M318.64,558.083a8.316,8.316,0,1,0,.874,11.728A8.316,8.316,0,0,0,318.64,558.083ZM308.029,570.4a7.943,7.943,0,1,1,11.2-.835A7.943,7.943,0,0,1,308.029,570.4Z" transform="translate(-304.897 -556.068)" fill="#fec200"/>
      </g>
      <g id="Group_12" data-name="Group 12" transform="translate(2.877 2.877)" opacity="0.3" style="mix-blend-mode: multiply;isolation: isolate">
        <path id="Path_16" data-name="Path 16" d="M326.624,585.677a5.763,5.763,0,0,1,7.438-8.8c-.072-.068-.139-.139-.215-.2a5.921,5.921,0,1,0-3.676,10.4A5.738,5.738,0,0,1,326.624,585.677Z" transform="translate(-324.062 -575.233)" fill="#fec200"/>
      </g>
      <g id="Group_13" data-name="Group 13" transform="translate(7.512 2.934)" opacity="0.5" style="mix-blend-mode: screen;isolation: isolate">
        <path id="Path_17" data-name="Path 17" d="M366.294,577.063a5.888,5.888,0,0,0-3.074-1.378,5.919,5.919,0,0,1-2.077,11.644,5.921,5.921,0,0,0,5.151-10.266Z" transform="translate(-361.143 -575.684)" fill="#fec200"/>
      </g>
      <g id="Group_14" data-name="Group 14" transform="translate(5.118 5.487)">
        <path id="Path_18" data-name="Path 18" d="M347.976,597.3l.022.019c.649.559,1.145,1.405.971,1.607s-.356.2-.573.009c-.184-.158-.652-.8-.869-.983l-.065-.056-1.1,1.278c.861.926,1.137,1.984.475,2.753-.712.827-1.817.8-2.959.13l-.712.827a.385.385,0,0,1-.554.009c-.205-.177-.239-.357-.082-.539l.687-.8c-1.133-1.026-1.482-1.779-1.044-2.289a.342.342,0,0,1,.548-.047c.206.177.287.783.365.934a2.751,2.751,0,0,0,.644.806l1.54-1.788-.032-.028c-.846-.812-1.058-1.682-.578-2.239s1.522-.564,2.614-.059l.521-.605a.413.413,0,0,1,.584,0,.326.326,0,0,1,.06.521Zm-1.232.161c-.589-.256-1.035-.221-1.324.115-.182.211-.06.551.356,1.009Zm-2.328,3.972a1.438,1.438,0,0,0,1.67-.1c.315-.365.227-.876-.255-1.542Z" transform="translate(-341.991 -596.116)" fill="#fec200"/>
      </g>
    </g>
    <rect id="Rectangle_11" data-name="Rectangle 11" width="86.224" height="58.186" rx="29.093" transform="translate(242.213 151.831)" fill="#e2e7ea"/>
    <rect id="Rectangle_12" data-name="Rectangle 12" width="81.29" height="58.186" rx="29.093" transform="translate(245.203 154.426)" fill="#ced5d8"/>
    <path id="Path_19" data-name="Path 19" d="M322.875,659.14H253.42a15.357,15.357,0,0,1-13.02-7.212v59.06a7.373,7.373,0,0,0,7.373,7.373h75.1a7.986,7.986,0,0,0,7.986-7.986V667.125A7.986,7.986,0,0,0,322.875,659.14Z" transform="translate(-1.763 -502.521)" fill="#995c25"/>
    <g id="Group_20" data-name="Group 20" transform="translate(238.637 156.079)" opacity="0.3">
      <g id="Group_19" data-name="Group 19" transform="translate(0 0)" opacity="0.7" style="mix-blend-mode: screen;isolation: isolate">
        <g id="Group_16" data-name="Group 16">
          <path id="Path_20" data-name="Path 20" d="M241.467,707.32a.646.646,0,0,1-.911-.086c-.051-.061-.1-.125-.152-.187v-1.728a.641.641,0,0,1,.53.277c.195.279.4.554.62.815A.646.646,0,0,1,241.467,707.32Z" transform="translate(-240.403 -705.318)" fill="#9d6228"/>
        </g>
        <g id="Group_17" data-name="Group 17" transform="translate(1.025 3.189)">
          <path id="Path_21" data-name="Path 21" d="M252.809,732.041a14.118,14.118,0,0,1-1.723-1.082.646.646,0,1,0-.765,1.042,15.4,15.4,0,0,0,1.882,1.181.646.646,0,1,0,.606-1.141Zm5.033,1.612a15.719,15.719,0,0,1-2-.409.646.646,0,1,0-.342,1.246,16.746,16.746,0,0,0,2.17.445.735.735,0,0,0,.089,0,.647.647,0,0,0,.086-1.287Zm5.446.142h-2.131a.647.647,0,0,0,0,1.293h2.131a.647.647,0,0,0,0-1.293Zm5.541,0H266.7a.647.647,0,0,0,0,1.293h2.132a.647.647,0,0,0,0-1.293Zm5.54,0h-2.131a.647.647,0,0,0,0,1.293h2.131a.647.647,0,1,0,0-1.293Zm5.541,0H277.78a.647.647,0,1,0,0,1.293h2.131a.647.647,0,0,0,0-1.293Zm5.54,0H283.32a.647.647,0,0,0,0,1.293h2.131a.647.647,0,1,0,0-1.293Zm5.541,0h-2.131a.647.647,0,1,0,0,1.293h2.131a.647.647,0,0,0,0-1.293Zm5.54,0H294.4a.647.647,0,0,0,0,1.293h2.131a.647.647,0,1,0,0-1.293Zm5.541,0h-2.131a.647.647,0,1,0,0,1.293h2.131a.647.647,0,0,0,0-1.293Zm5.54,0h-2.131a.647.647,0,0,0,0,1.293h2.131a.647.647,0,1,0,0-1.293Zm5.541,0h-2.131a.647.647,0,1,0,0,1.293h2.131a.647.647,0,0,0,0-1.293Zm5.54,0h-2.131a.647.647,0,0,0,0,1.293h2.131a.647.647,0,1,0,0-1.293Zm5.541,0h-2.131a.647.647,0,0,0,0,1.293h2.131a.647.647,0,0,0,0-1.293Zm5.7.935a8.762,8.762,0,0,0-2.17-.751.647.647,0,0,0-.259,1.267,7.45,7.45,0,0,1,1.847.639.637.637,0,0,0,.29.069.646.646,0,0,0,.291-1.223Zm3.905,4.415a7.138,7.138,0,0,0-1.076-2.068.647.647,0,0,0-1.037.774,5.851,5.851,0,0,1,.884,1.693.647.647,0,0,0,.615.447.639.639,0,0,0,.2-.031A.648.648,0,0,0,333.838,739.145Zm-.314,2.929a.647.647,0,0,0-.646.647v2.131a.647.647,0,0,0,1.293,0v-2.131A.648.648,0,0,0,333.524,742.075Zm0,5.541a.647.647,0,0,0-.646.646v2.131a.647.647,0,1,0,1.293,0v-2.131A.647.647,0,0,0,333.524,747.616Zm0,5.54a.647.647,0,0,0-.646.647v2.131a.647.647,0,0,0,1.293,0V753.8A.648.648,0,0,0,333.524,753.156Zm0,5.541a.647.647,0,0,0-.646.646v2.132a.647.647,0,0,0,1.293,0v-2.132A.647.647,0,0,0,333.524,758.7Zm0,5.54a.647.647,0,0,0-.646.647v2.131a.647.647,0,0,0,1.293,0v-2.131A.648.648,0,0,0,333.524,764.237Zm0,5.541a.647.647,0,0,0-.646.646v2.131a.647.647,0,1,0,1.293,0v-2.131A.647.647,0,0,0,333.524,769.779Zm0,5.541a.646.646,0,0,0-.646.646V778.1a.647.647,0,0,0,1.293,0v-2.131A.646.646,0,0,0,333.524,775.32Zm-.56,5.466a.649.649,0,0,0-.887.225,6.255,6.255,0,0,1-1.23,1.48.647.647,0,0,0,.859.967,7.574,7.574,0,0,0,1.483-1.785A.648.648,0,0,0,332.964,780.786Zm-81.721,2.674a6.289,6.289,0,0,1-1.527-1.171.646.646,0,1,0-.937.89,7.529,7.529,0,0,0,1.842,1.413.635.635,0,0,0,.31.08.646.646,0,0,0,.312-1.212Zm77.691.962a.647.647,0,0,0-.8-.436,7.773,7.773,0,0,1-1.936.31.646.646,0,0,0,.021,1.292h.021a9.024,9.024,0,0,0,2.261-.362A.647.647,0,0,0,328.934,784.423Zm-72.615-.123h-1.737c-.121,0-.242,0-.364-.009a.66.66,0,0,0-.676.615.646.646,0,0,0,.615.676c.14.007.282.011.425.011h1.737a.647.647,0,0,0,0-1.294Zm5.54,0h-2.131a.647.647,0,0,0,0,1.294h2.131a.647.647,0,1,0,0-1.294Zm5.541,0h-2.132a.647.647,0,0,0,0,1.294H267.4a.647.647,0,0,0,0-1.294Zm5.54,0h-2.131a.647.647,0,0,0,0,1.294h2.131a.647.647,0,1,0,0-1.294Zm5.541,0H276.35a.647.647,0,1,0,0,1.294h2.131a.647.647,0,0,0,0-1.294Zm5.54,0H281.89a.647.647,0,0,0,0,1.294h2.131a.647.647,0,1,0,0-1.294Zm5.541,0h-2.131a.647.647,0,1,0,0,1.294h2.131a.647.647,0,0,0,0-1.294Zm5.54,0h-2.131a.647.647,0,0,0,0,1.294H295.1a.647.647,0,1,0,0-1.294Zm5.541,0h-2.131a.647.647,0,1,0,0,1.294h2.131a.647.647,0,0,0,0-1.294Zm5.54,0h-2.131a.647.647,0,0,0,0,1.294h2.131a.647.647,0,1,0,0-1.294Zm5.541,0h-2.131a.647.647,0,1,0,0,1.294h2.131a.647.647,0,0,0,0-1.294Zm5.541,0h-2.132a.647.647,0,0,0,0,1.294h2.132a.647.647,0,0,0,0-1.294Zm5.54,0h-2.131a.647.647,0,1,0,0,1.294h2.131a.647.647,0,0,0,0-1.294Z" transform="translate(-248.601 -730.833)" fill="#9d6228"/>
        </g>
        <g id="Group_18" data-name="Group 18" transform="translate(0 50.368)">
          <path id="Path_22" data-name="Path 22" d="M240.625,1110.7a.67.67,0,0,1-.122.011.536.536,0,0,1-.091-.008c-.006-.112-.009-.225-.009-.337v-2.02a.646.646,0,0,1,.646.647,5.031,5.031,0,0,0,.09.949A.647.647,0,0,1,240.625,1110.7Z" transform="translate(-240.403 -1108.348)" fill="#9d6228"/>
        </g>
      </g>
      <path id="Path_23" data-name="Path 23" d="M241.139,1109.944a.647.647,0,0,1-.514.757.67.67,0,0,1-.122.011.536.536,0,0,1-.091-.008c-.006-.112-.009-.225-.009-.337v-2.02a.646.646,0,0,1,.646.647A5.031,5.031,0,0,0,241.139,1109.944Z" transform="translate(-240.403 -1057.98)" fill="#9d6228" opacity="0.7" style="mix-blend-mode: screen;isolation: isolate"/>
      <path id="Path_24" data-name="Path 24" d="M240.555,707.234c-.051-.061-.1-.125-.152-.187v-1.728a.641.641,0,0,1,.53.277c.195.279.4.554.62.815a.647.647,0,1,1-1,.824Z" transform="translate(-240.403 -705.318)" fill="#9d6228" opacity="0.7" style="mix-blend-mode: screen;isolation: isolate"/>
      <path id="Path_25" data-name="Path 25" d="M251.5,1143.213a.647.647,0,0,1-.567.335.634.634,0,0,1-.31-.08,7.526,7.526,0,0,1-1.842-1.413.646.646,0,1,1,.937-.89,6.289,6.289,0,0,0,1.527,1.171A.646.646,0,0,1,251.5,1143.213Z" transform="translate(-247.577 -1086.519)" fill="#9d6228" opacity="0.7" style="mix-blend-mode: screen;isolation: isolate"/>
      <path id="Path_26" data-name="Path 26" d="M263.268,732.914a.644.644,0,0,1-.874.267A15.4,15.4,0,0,1,260.513,732a.646.646,0,1,1,.765-1.042A14.113,14.113,0,0,0,263,732.041.646.646,0,0,1,263.268,732.914Z" transform="translate(-257.768 -727.644)" fill="#9d6228" opacity="0.7" style="mix-blend-mode: screen;isolation: isolate"/>
      <path id="Path_27" data-name="Path 27" d="M291.55,1159.251a.647.647,0,0,1-.646.647h-1.737c-.143,0-.285,0-.425-.011a.646.646,0,0,1-.615-.676.66.66,0,0,1,.676-.615c.121.006.242.009.364.009H290.9A.647.647,0,0,1,291.55,1159.251Z" transform="translate(-282.163 -1101.948)" fill="#9d6228" opacity="0.7" style="mix-blend-mode: screen;isolation: isolate"/>
      <path id="Path_28" data-name="Path 28" d="M303.353,751.1a.647.647,0,0,1-.64.559.71.71,0,0,1-.089-.005,16.725,16.725,0,0,1-2.17-.445.646.646,0,1,1,.342-1.246,15.7,15.7,0,0,0,2,.409A.648.648,0,0,1,303.353,751.1Z" transform="translate(-292.534 -744.366)" fill="#9d6228" opacity="0.7" style="mix-blend-mode: screen;isolation: isolate"/>
      <path id="Path_29" data-name="Path 29" d="M335.887,1159.314a.647.647,0,0,1-.647.647h-2.131a.647.647,0,0,1,0-1.293h2.131A.647.647,0,0,1,335.887,1159.314Z" transform="translate(-320.958 -1102.012)" fill="#9d6228" opacity="0.7" style="mix-blend-mode: screen;isolation: isolate"/>
      <path id="Path_30" data-name="Path 30" d="M347.326,755.184a.646.646,0,0,1-.646.647h-2.131a.647.647,0,0,1,0-1.293h2.131A.646.646,0,0,1,347.326,755.184Z" transform="translate(-330.968 -748.387)" fill="#9d6228" opacity="0.7" style="mix-blend-mode: screen;isolation: isolate"/>
      <path id="Path_31" data-name="Path 31" d="M380.217,1159.314a.646.646,0,0,1-.646.647h-2.132a.647.647,0,0,1,0-1.293h2.132A.646.646,0,0,1,380.217,1159.314Z" transform="translate(-359.748 -1102.012)" fill="#9d6228" opacity="0.7" style="mix-blend-mode: screen;isolation: isolate"/>
      <path id="Path_32" data-name="Path 32" d="M391.657,755.184a.646.646,0,0,1-.646.647h-2.132a.647.647,0,0,1,0-1.293h2.132A.646.646,0,0,1,391.657,755.184Z" transform="translate(-369.758 -748.387)" fill="#9d6228" opacity="0.7" style="mix-blend-mode: screen;isolation: isolate"/>
      <path id="Path_33" data-name="Path 33" d="M424.557,1159.314a.647.647,0,0,1-.647.647h-2.131a.647.647,0,0,1,0-1.293h2.131A.647.647,0,0,1,424.557,1159.314Z" transform="translate(-398.547 -1102.012)" fill="#9d6228" opacity="0.7" style="mix-blend-mode: screen;isolation: isolate"/>
      <path id="Path_34" data-name="Path 34" d="M436,755.184a.648.648,0,0,1-.647.647h-2.131a.647.647,0,0,1,0-1.293h2.131A.647.647,0,0,1,436,755.184Z" transform="translate(-408.557 -748.387)" fill="#9d6228" opacity="0.7" style="mix-blend-mode: screen;isolation: isolate"/>
      <path id="Path_35" data-name="Path 35" d="M468.887,1159.314a.646.646,0,0,1-.646.647H466.11a.647.647,0,1,1,0-1.293h2.131A.646.646,0,0,1,468.887,1159.314Z" transform="translate(-437.337 -1102.012)" fill="#9d6228" opacity="0.7" style="mix-blend-mode: screen;isolation: isolate"/>
      <path id="Path_36" data-name="Path 36" d="M480.327,755.184a.647.647,0,0,1-.646.647H477.55a.647.647,0,1,1,0-1.293h2.131A.646.646,0,0,1,480.327,755.184Z" transform="translate(-447.347 -748.387)" fill="#9d6228" opacity="0.7" style="mix-blend-mode: screen;isolation: isolate"/>
      <path id="Path_37" data-name="Path 37" d="M513.227,1159.314a.648.648,0,0,1-.647.647h-2.131a.647.647,0,0,1,0-1.293h2.131A.647.647,0,0,1,513.227,1159.314Z" transform="translate(-476.135 -1102.012)" fill="#9d6228" opacity="0.7" style="mix-blend-mode: screen;isolation: isolate"/>
      <path id="Path_38" data-name="Path 38" d="M524.667,755.184a.648.648,0,0,1-.647.647h-2.131a.647.647,0,0,1,0-1.293h2.131A.647.647,0,0,1,524.667,755.184Z" transform="translate(-486.146 -748.387)" fill="#9d6228" opacity="0.7" style="mix-blend-mode: screen;isolation: isolate"/>
      <path id="Path_39" data-name="Path 39" d="M557.557,1159.314a.646.646,0,0,1-.646.647H554.78a.647.647,0,1,1,0-1.293h2.131A.646.646,0,0,1,557.557,1159.314Z" transform="translate(-514.925 -1102.012)" fill="#9d6228" opacity="0.7" style="mix-blend-mode: screen;isolation: isolate"/>
      <path id="Path_40" data-name="Path 40" d="M569,755.184a.647.647,0,0,1-.646.647H566.22a.647.647,0,1,1,0-1.293h2.131A.646.646,0,0,1,569,755.184Z" transform="translate(-524.936 -748.387)" fill="#9d6228" opacity="0.7" style="mix-blend-mode: screen;isolation: isolate"/>
      <path id="Path_41" data-name="Path 41" d="M601.9,1159.314a.647.647,0,0,1-.647.647h-2.131a.647.647,0,0,1,0-1.293h2.131A.647.647,0,0,1,601.9,1159.314Z" transform="translate(-553.724 -1102.012)" fill="#9d6228" opacity="0.7" style="mix-blend-mode: screen;isolation: isolate"/>
      <path id="Path_42" data-name="Path 42" d="M613.337,755.184a.648.648,0,0,1-.647.647h-2.131a.647.647,0,0,1,0-1.293h2.131A.647.647,0,0,1,613.337,755.184Z" transform="translate(-563.734 -748.387)" fill="#9d6228" opacity="0.7" style="mix-blend-mode: screen;isolation: isolate"/>
      <path id="Path_43" data-name="Path 43" d="M646.227,1159.314a.646.646,0,0,1-.646.647H643.45a.647.647,0,1,1,0-1.293h2.131A.646.646,0,0,1,646.227,1159.314Z" transform="translate(-592.514 -1102.012)" fill="#9d6228" opacity="0.7" style="mix-blend-mode: screen;isolation: isolate"/>
      <path id="Path_44" data-name="Path 44" d="M657.667,755.184a.646.646,0,0,1-.646.647H654.89a.647.647,0,1,1,0-1.293h2.131A.646.646,0,0,1,657.667,755.184Z" transform="translate(-602.524 -748.387)" fill="#9d6228" opacity="0.7" style="mix-blend-mode: screen;isolation: isolate"/>
      <path id="Path_45" data-name="Path 45" d="M690.567,1159.314a.647.647,0,0,1-.647.647h-2.131a.647.647,0,0,1,0-1.293h2.131A.647.647,0,0,1,690.567,1159.314Z" transform="translate(-631.313 -1102.012)" fill="#9d6228" opacity="0.7" style="mix-blend-mode: screen;isolation: isolate"/>
      <path id="Path_46" data-name="Path 46" d="M702.007,755.184a.648.648,0,0,1-.647.647h-2.131a.647.647,0,0,1,0-1.293h2.131A.647.647,0,0,1,702.007,755.184Z" transform="translate(-641.323 -748.387)" fill="#9d6228" opacity="0.7" style="mix-blend-mode: screen;isolation: isolate"/>
      <path id="Path_47" data-name="Path 47" d="M734.9,1159.314a.646.646,0,0,1-.646.647H732.12a.647.647,0,1,1,0-1.293h2.131A.646.646,0,0,1,734.9,1159.314Z" transform="translate(-670.103 -1102.012)" fill="#9d6228" opacity="0.7" style="mix-blend-mode: screen;isolation: isolate"/>
      <path id="Path_48" data-name="Path 48" d="M746.337,755.184a.646.646,0,0,1-.646.647H743.56a.647.647,0,1,1,0-1.293h2.131A.646.646,0,0,1,746.337,755.184Z" transform="translate(-680.113 -748.387)" fill="#9d6228" opacity="0.7" style="mix-blend-mode: screen;isolation: isolate"/>
      <path id="Path_49" data-name="Path 49" d="M779.237,1159.314a.647.647,0,0,1-.646.647h-2.132a.647.647,0,0,1,0-1.293h2.132A.647.647,0,0,1,779.237,1159.314Z" transform="translate(-708.901 -1102.012)" fill="#9d6228" opacity="0.7" style="mix-blend-mode: screen;isolation: isolate"/>
      <path id="Path_50" data-name="Path 50" d="M790.677,755.184a.647.647,0,0,1-.647.647H787.9a.647.647,0,0,1,0-1.293h2.131A.647.647,0,0,1,790.677,755.184Z" transform="translate(-718.912 -748.387)" fill="#9d6228" opacity="0.7" style="mix-blend-mode: screen;isolation: isolate"/>
      <path id="Path_51" data-name="Path 51" d="M823.567,1159.314a.646.646,0,0,1-.646.647h-2.131a.647.647,0,1,1,0-1.293h2.131A.646.646,0,0,1,823.567,1159.314Z" transform="translate(-747.691 -1102.012)" fill="#9d6228" opacity="0.7" style="mix-blend-mode: screen;isolation: isolate"/>
      <path id="Path_52" data-name="Path 52" d="M835.016,755.184a.647.647,0,0,1-.646.647h-2.131a.647.647,0,0,1,0-1.293h2.131A.647.647,0,0,1,835.016,755.184Z" transform="translate(-757.71 -748.387)" fill="#9d6228" opacity="0.7" style="mix-blend-mode: screen;isolation: isolate"/>
      <path id="Path_53" data-name="Path 53" d="M867.845,1156.407a.647.647,0,0,1-.436.8,9.029,9.029,0,0,1-2.261.362h-.021a.646.646,0,0,1-.021-1.292,7.776,7.776,0,0,0,1.936-.31A.646.646,0,0,1,867.845,1156.407Z" transform="translate(-786.488 -1099.628)" fill="#9d6228" opacity="0.7" style="mix-blend-mode: screen;isolation: isolate"/>
      <path id="Path_54" data-name="Path 54" d="M879.058,757.537a.646.646,0,0,1-.579.356.638.638,0,0,1-.29-.069,7.451,7.451,0,0,0-1.847-.639.647.647,0,0,1,.259-1.267,8.772,8.772,0,0,1,2.17.751A.646.646,0,0,1,879.058,757.537Z" transform="translate(-796.414 -749.583)" fill="#9d6228" opacity="0.7" style="mix-blend-mode: screen;isolation: isolate"/>
      <path id="Path_55" data-name="Path 55" d="M907.536,1130.8a7.566,7.566,0,0,1-1.483,1.784.647.647,0,0,1-.859-.967,6.255,6.255,0,0,0,1.23-1.48.647.647,0,1,1,1.112.662Z" transform="translate(-821.924 -1076.772)" fill="#9d6228" opacity="0.7" style="mix-blend-mode: screen;isolation: isolate"/>
      <path id="Path_56" data-name="Path 56" d="M912.837,779.753a.647.647,0,0,1,1.037-.774,7.132,7.132,0,0,1,1.076,2.068.647.647,0,0,1-.416.815.639.639,0,0,1-.2.031.647.647,0,0,1-.615-.447A5.848,5.848,0,0,0,912.837,779.753Z" transform="translate(-828.689 -769.546)" fill="#9d6228" opacity="0.7" style="mix-blend-mode: screen;isolation: isolate"/>
      <path id="Path_57" data-name="Path 57" d="M924.257,821.435v2.131a.647.647,0,0,1-1.294,0v-2.131a.647.647,0,1,1,1.294,0Z" transform="translate(-837.661 -806.357)" fill="#9d6228" opacity="0.7" style="mix-blend-mode: screen;isolation: isolate"/>
      <path id="Path_58" data-name="Path 58" d="M924.257,865.774V867.9a.647.647,0,1,1-1.294,0v-2.131a.647.647,0,0,1,1.294,0Z" transform="translate(-837.661 -845.156)" fill="#9d6228" opacity="0.7" style="mix-blend-mode: screen;isolation: isolate"/>
      <path id="Path_59" data-name="Path 59" d="M924.257,910.105v2.131a.647.647,0,0,1-1.294,0v-2.131a.647.647,0,1,1,1.294,0Z" transform="translate(-837.661 -883.946)" fill="#9d6228" opacity="0.7" style="mix-blend-mode: screen;isolation: isolate"/>
      <path id="Path_60" data-name="Path 60" d="M924.257,954.444v2.132a.647.647,0,0,1-1.294,0v-2.132a.647.647,0,0,1,1.294,0Z" transform="translate(-837.661 -922.745)" fill="#9d6228" opacity="0.7" style="mix-blend-mode: screen;isolation: isolate"/>
      <path id="Path_61" data-name="Path 61" d="M924.257,998.775v2.131a.647.647,0,0,1-1.294,0v-2.131a.647.647,0,1,1,1.294,0Z" transform="translate(-837.661 -961.535)" fill="#9d6228" opacity="0.7" style="mix-blend-mode: screen;isolation: isolate"/>
      <path id="Path_62" data-name="Path 62" d="M924.257,1043.114v2.131a.647.647,0,1,1-1.294,0v-2.131a.647.647,0,0,1,1.294,0Z" transform="translate(-837.661 -1000.334)" fill="#9d6228" opacity="0.7" style="mix-blend-mode: screen;isolation: isolate"/>
      <path id="Path_63" data-name="Path 63" d="M924.257,1087.454v2.131a.647.647,0,0,1-1.294,0v-2.131a.647.647,0,0,1,1.294,0Z" transform="translate(-837.661 -1039.132)" fill="#9d6228" opacity="0.7" style="mix-blend-mode: screen;isolation: isolate"/>
    </g>
    <path id="Path_64" data-name="Path 64" d="M322.875,659.14H253.42a15.357,15.357,0,0,1-13.02-7.212v2.641a15.357,15.357,0,0,0,13.02,7.213h69.455a7.986,7.986,0,0,1,7.986,7.986v-2.641A7.986,7.986,0,0,0,322.875,659.14Z" transform="translate(-1.763 -502.521)" fill="#9d6228" opacity="0.7" style="mix-blend-mode: screen;isolation: isolate"/>
    <g id="Group_21" data-name="Group 21" transform="translate(306.774 190.766)" opacity="0.3" style="mix-blend-mode: multiply;isolation: isolate">
      <path id="Path_65" data-name="Path 65" d="M785.62,986.082l22.286,14.607c.022-.24.037-.482.037-.727V982.874Z" transform="translate(-785.62 -982.874)" fill="#9d6228"/>
    </g>
    <path id="Path_66" data-name="Path 66" d="M766.109,892.914a7.925,7.925,0,0,0-7.925,7.925h0a7.925,7.925,0,0,0,7.925,7.925h17.827V892.914Z" transform="translate(-454.838 -713.391)" fill="#824b19"/>
    <path id="Path_67" data-name="Path 67" d="M766.109,892.914a7.925,7.925,0,0,0-7.925,7.925h0a7.925,7.925,0,0,0,7.925,7.925h17.827V892.914Z" transform="translate(-454.838 -713.391)" fill="#9d6228" opacity="0.3" style="mix-blend-mode: multiply;isolation: isolate"/>
    <g id="Group_22" data-name="Group 22" transform="translate(238.637 149.406)" opacity="0.3" style="mix-blend-mode: multiply;isolation: isolate">
      <path id="Path_68" data-name="Path 68" d="M245.059,656.661a15.344,15.344,0,0,1-4.659-4.734v59.06a7.37,7.37,0,0,0,4.659,6.851Z" transform="translate(-240.4 -651.927)" fill="#9d6228"/>
    </g>
    <g id="Group_23" data-name="Group 23" transform="translate(303.346 179.523)" opacity="0.3" style="mix-blend-mode: screen;isolation: isolate">
      <path id="Path_69" data-name="Path 69" d="M766.109,892.914a7.925,7.925,0,0,0-7.925,7.925c0,.136.014.269.02.4a7.918,7.918,0,0,1,7.9-7.521h17.827v-.807Z" transform="translate(-758.184 -892.914)" fill="#9d6228"/>
    </g>
    <g id="Group_24" data-name="Group 24" transform="translate(309.451 184.263)" opacity="0.3" style="mix-blend-mode: multiply;isolation: isolate">
      <path id="Path_70" data-name="Path 70" d="M812.174,930.839l-5.14,5.893,7.472,5.216h12.175l.631-.654Z" transform="translate(-807.034 -930.839)" fill="#9d6228"/>
    </g>
    <circle id="Ellipse_13" data-name="Ellipse 13" cx="3.929" cy="3.929" r="3.929" transform="translate(308.364 183.519)" fill="#d69d46"/>
    <g id="Group_25" data-name="Group 25" transform="translate(308.364 183.519)" opacity="0.5" style="mix-blend-mode: screen;isolation: isolate">
      <path id="Path_71" data-name="Path 71" d="M802.269,925.769a3.928,3.928,0,0,1,3.9,3.488,3.929,3.929,0,1,0-7.8,0A3.928,3.928,0,0,1,802.269,925.769Z" transform="translate(-798.34 -924.888)" fill="#d69d46"/>
    </g>
    <g id="Group_32" data-name="Group 32" transform="translate(255.327 103.026)">
      <circle id="Ellipse_14" data-name="Ellipse 14" cx="9.301" cy="9.301" r="9.301" transform="translate(0 13.153) rotate(-45)" fill="#fec200"/>
      <g id="Group_26" data-name="Group 26" transform="translate(10.484 9.12)" opacity="0.3" style="mix-blend-mode: multiply;isolation: isolate">
        <path id="Path_72" data-name="Path 72" d="M459.935,354.753l.03-.013c.88-.4,1.98-.5,2.1-.225s.029.457-.264.589c-.249.112-1.123.286-1.417.418l-.088.04.78,1.733c1.356-.438,2.567-.215,3.036.828.5,1.121-.054,2.233-1.277,3.082l.5,1.12a.434.434,0,0,1-.255.57c-.278.125-.478.074-.59-.174l-.487-1.082c-1.587.667-2.522.665-2.833-.026a.386.386,0,0,1,.214-.582c.279-.125.936.08,1.127.073a3.1,3.1,0,0,0,1.129-.273l-1.09-2.424-.044.02c-1.232.476-2.221.278-2.561-.478s.15-1.822,1.185-2.7l-.369-.821a.465.465,0,0,1,.279-.6.367.367,0,0,1,.56.187Zm-.423,1.334c-.543.479-.719.95-.513,1.406.129.287.534.324,1.2.118Zm2.944,4.269a1.619,1.619,0,0,0,.693-1.753c-.223-.5-.786-.649-1.7-.475Z" transform="translate(-457.847 -353.778)" fill="#fec200"/>
      </g>
      <g id="Group_27" data-name="Group 27" transform="translate(3.858 3.858)" opacity="0.3" style="mix-blend-mode: multiply;isolation: isolate">
        <circle id="Ellipse_15" data-name="Ellipse 15" cx="6.669" cy="6.669" r="6.669" transform="translate(0 10.893) rotate(-54.75)" fill="#fec200"/>
      </g>
      <g id="Group_28" data-name="Group 28" transform="translate(3.784 3.784)" opacity="0.3" style="mix-blend-mode: multiply;isolation: isolate">
        <path id="Path_73" data-name="Path 73" d="M409.758,311.908a9.367,9.367,0,1,0,12.385,4.7A9.367,9.367,0,0,0,409.758,311.908Zm7.514,16.7a8.947,8.947,0,1,1,4.488-11.83A8.947,8.947,0,0,1,417.272,328.609Z" transform="translate(-404.232 -311.081)" fill="#fec200"/>
      </g>
      <g id="Group_29" data-name="Group 29" transform="translate(6.482 6.95)" opacity="0.3" style="mix-blend-mode: multiply;isolation: isolate">
        <path id="Path_74" data-name="Path 74" d="M435.507,348.2a6.491,6.491,0,0,1-5.439-11.787c-.1.041-.208.075-.311.122a6.669,6.669,0,1,0,8.859,8.708A6.462,6.462,0,0,1,435.507,348.2Z" transform="translate(-425.823 -336.412)" fill="#fec200"/>
      </g>
      <g id="Group_30" data-name="Group 30" transform="translate(7.545 6.482)" opacity="0.5" style="mix-blend-mode: screen;isolation: isolate">
        <path id="Path_75" data-name="Path 75" d="M437.2,333.261a6.634,6.634,0,0,0-2.872,2.48,6.667,6.667,0,0,1,10.893,7.671,6.669,6.669,0,0,0-8.021-10.15Z" transform="translate(-434.324 -332.672)" fill="#fec200"/>
      </g>
      <g id="Group_31" data-name="Group 31" transform="translate(9.988 8.809)">
        <path id="Path_76" data-name="Path 76" d="M455.968,352.266l.03-.013c.88-.4,1.98-.5,2.1-.225s.03.457-.264.589c-.249.112-1.123.286-1.417.418l-.088.04.78,1.733c1.356-.438,2.567-.215,3.036.828.5,1.12-.054,2.233-1.277,3.082l.5,1.12a.434.434,0,0,1-.255.57c-.278.125-.478.074-.589-.174l-.487-1.082c-1.587.667-2.522.665-2.833-.026a.386.386,0,0,1,.214-.582c.279-.125.936.08,1.126.073a3.1,3.1,0,0,0,1.129-.273l-1.09-2.423-.044.02c-1.232.476-2.221.278-2.561-.478s.15-1.822,1.186-2.7l-.369-.821a.465.465,0,0,1,.279-.6.367.367,0,0,1,.56.187Zm-.423,1.334c-.543.479-.719.95-.513,1.406.129.287.534.324,1.2.118Zm2.944,4.269a1.619,1.619,0,0,0,.693-1.753c-.223-.5-.786-.649-1.7-.475Z" transform="translate(-453.88 -351.29)" fill="#fec200"/>
      </g>
    </g>
    <g id="Group_39" data-name="Group 39" transform="translate(238.385 77.635)">
      <circle id="Ellipse_16" data-name="Ellipse 16" cx="9.423" cy="9.423" r="9.423" transform="translate(0 13.326) rotate(-45)" fill="#fec200"/>
      <g id="Group_33" data-name="Group 33" transform="translate(9.592 9.383)" opacity="0.3" style="mix-blend-mode: multiply;isolation: isolate">
        <path id="Path_77" data-name="Path 77" d="M320.634,154.044l.031.012c.915.343,1.779,1.055,1.673,1.339s-.3.349-.61.235c-.259-.1-1.012-.6-1.317-.711l-.092-.034-.676,1.8c1.287.653,2,1.678,1.592,2.762-.437,1.165-1.633,1.567-3.118,1.3l-.437,1.165a.44.44,0,0,1-.59.227c-.289-.109-.4-.288-.3-.546l.422-1.125c-1.617-.653-2.288-1.322-2.019-2.041a.391.391,0,0,1,.569-.266c.29.109.616.726.758.857a3.141,3.141,0,0,0,1.007.609l.946-2.521-.045-.017c-1.226-.537-1.8-1.385-1.5-2.171s1.409-1.2,2.776-1.092l.32-.854a.471.471,0,0,1,.626-.229c.274.1.366.276.269.534Zm-1.256.657c-.732-.043-1.2.17-1.373.645-.112.3.153.614.778.941Zm-.931,5.171a1.64,1.64,0,0,0,1.749-.766c.193-.515-.1-1.028-.88-1.552Z" transform="translate(-315.135 -152.714)" fill="#fec200"/>
      </g>
      <g id="Group_34" data-name="Group 34" transform="translate(4.085 4.085)" opacity="0.3" style="mix-blend-mode: multiply;isolation: isolate">
        <circle id="Ellipse_17" data-name="Ellipse 17" cx="6.757" cy="6.757" r="6.757" transform="translate(0 6.81) rotate(-30.262)" fill="#fec200"/>
      </g>
      <g id="Group_35" data-name="Group 35" transform="translate(3.833 3.833)" opacity="0.3" style="mix-blend-mode: multiply;isolation: isolate">
        <path id="Path_78" data-name="Path 78" d="M281.884,108.916a9.49,9.49,0,1,0,5.552,12.218A9.49,9.49,0,0,0,281.884,108.916Zm-6.518,17.372a9.064,9.064,0,1,1,11.671-5.3A9.065,9.065,0,0,1,275.367,126.288Z" transform="translate(-269.059 -108.309)" fill="#fec200"/>
      </g>
      <g id="Group_36" data-name="Group 36" transform="translate(6.567 6.567)" opacity="0.3" style="mix-blend-mode: multiply;isolation: isolate">
        <path id="Path_79" data-name="Path 79" d="M295.873,143.108a6.576,6.576,0,0,1,4.5-12.357c-.1-.045-.2-.095-.31-.135a6.757,6.757,0,1,0,.154,12.584A6.546,6.546,0,0,1,295.873,143.108Z" transform="translate(-290.933 -130.184)" fill="#fec200"/>
      </g>
      <g id="Group_37" data-name="Group 37" transform="translate(11.864 6.57)" opacity="0.5" style="mix-blend-mode: screen;isolation: isolate">
        <path id="Path_80" data-name="Path 80" d="M337.154,130.636a6.72,6.72,0,0,0-3.835-.267,6.755,6.755,0,0,1,2.357,13.29,6.757,6.757,0,0,0,1.478-13.023Z" transform="translate(-333.319 -130.207)" fill="#fec200"/>
      </g>
      <g id="Group_38" data-name="Group 38" transform="translate(9.457 8.805)">
        <path id="Path_81" data-name="Path 81" d="M319.557,149.424l.031.012c.915.343,1.779,1.055,1.673,1.339s-.3.349-.61.235c-.259-.1-1.012-.6-1.317-.711l-.092-.034-.676,1.8c1.287.653,2,1.678,1.592,2.762-.437,1.166-1.633,1.567-3.118,1.3L316.6,157.3a.44.44,0,0,1-.59.227c-.289-.109-.4-.288-.3-.546l.422-1.125c-1.617-.653-2.288-1.322-2.019-2.041a.391.391,0,0,1,.569-.266c.29.109.616.726.758.857a3.142,3.142,0,0,0,1.007.609l.946-2.521-.046-.017c-1.226-.537-1.8-1.385-1.5-2.171s1.409-1.2,2.777-1.092l.32-.854a.471.471,0,0,1,.626-.229c.274.1.366.276.269.534Zm-1.256.657c-.732-.043-1.195.17-1.373.645-.112.3.152.614.778.941Zm-.931,5.171a1.64,1.64,0,0,0,1.749-.766c.193-.515-.1-1.028-.88-1.552Z" transform="translate(-314.059 -148.094)" fill="#fec200"/>
      </g>
    </g>
  </g>
</svg>
