<svg xmlns="http://www.w3.org/2000/svg" xmlns:xlink="http://www.w3.org/1999/xlink" width="622.905" height="498.905" viewBox="0 0 622.905 498.905">
  <defs>
    <linearGradient id="linear-gradient" y1="0.5" x2="1" y2="0.5" gradientUnits="objectBoundingBox">
      <stop offset="0" stop-color="#bb7ad5"/>
      <stop offset="1" stop-color="#fbfbfb"/>
    </linearGradient>
    <linearGradient id="linear-gradient-24" x1="0.5" y1="1" x2="0.5" gradientUnits="objectBoundingBox">
      <stop offset="0" stop-color="#cac7c2"/>
      <stop offset="0.216" stop-color="#dddbd8"/>
      <stop offset="0.468" stop-color="#ededeb"/>
      <stop offset="0.727" stop-color="#f7f7f7"/>
      <stop offset="1" stop-color="#fbfbfb"/>
    </linearGradient>
  </defs>
  <g id="Group_57060" data-name="Group 57060" transform="translate(-575.095 -3032.595)">
    <path id="Path_204008" data-name="Path 204008" d="M283.958,1274.734a20.952,20.952,0,1,1-20.952,20.952,20.952,20.952,0,0,1,20.952-20.952Zm0,5.579a15.374,15.374,0,1,0,15.374,15.374A15.374,15.374,0,0,0,283.958,1280.313Z" transform="translate(419.994 1757.861)" fill="#fee101" fill-rule="evenodd" opacity="0.968"/>
    <path id="Path_204011" data-name="Path 204011" d="M273.506,1274.734a10.5,10.5,0,1,1-10.5,10.5,10.5,10.5,0,0,1,10.5-10.5Zm0,2.8a7.7,7.7,0,1,0,7.7,7.7A7.7,7.7,0,0,0,273.506,1277.53Z" transform="translate(913.994 2148.766)" fill="#fee101" fill-rule="evenodd" opacity="0.968"/>
    <path id="Path_204010" data-name="Path 204010" d="M268.831,1274.734a5.825,5.825,0,1,1-5.825,5.825,5.825,5.825,0,0,1,5.825-5.825Zm0,1.551a4.274,4.274,0,1,0,4.274,4.274A4.274,4.274,0,0,0,268.831,1276.285Z" transform="translate(312.089 2245.115)" fill="#fee101" fill-rule="evenodd" opacity="0.968"/>
    <g id="Group_32" data-name="Group 32" transform="translate(373 2985)">
      <g id="Group_19" data-name="Group 19" transform="translate(309.618 275.202)" opacity="0.23" style="mix-blend-mode: multiply;isolation: isolate">
        <path id="Path_10" data-name="Path 10" d="M428.107,293.847q.029-.891.034-1.781L360.1,360.1q.891-.006,1.781-.036Z" transform="translate(-291.165 -223.125)" fill="url(#linear-gradient)"/>
        <path id="Path_11" data-name="Path 11" d="M430.076,287.582c-.048-.527-.1-1.056-.162-1.581l-75.875,75.874q.791.09,1.583.162Z" transform="translate(-293.381 -225.342)" fill="url(#linear-gradient)"/>
        <path id="Path_12" data-name="Path 12" d="M323.99,352.806c.145.146.285.295.432.441s.295.287.441.432l96.853-96.853c-.143-.148-.284-.3-.43-.442s-.295-.287-.442-.432Z" transform="translate(-304.365 -236.326)" fill="url(#linear-gradient)"/>
        <path id="Path_13" data-name="Path 13" d="M424.569,301.059c.122-.694.238-1.387.339-2.084l-57.894,57.894c.7-.1,1.39-.217,2.084-.339Z" transform="translate(-288.639 -220.6)" fill="url(#linear-gradient)"/>
        <path id="Path_14" data-name="Path 14" d="M430.946,281.977q-.147-.719-.31-1.435L348.581,362.6c.477.109.956.212,1.434.31Z" transform="translate(-295.376 -227.337)" fill="url(#linear-gradient)"/>
        <path id="Path_15" data-name="Path 15" d="M406.239,319.842,387.88,338.2a68.905,68.905,0,0,0,18.359-18.359Z" transform="translate(-281.012 -212.973)" fill="url(#linear-gradient)"/>
        <path id="Path_16" data-name="Path 16" d="M430.964,276.873q-.209-.658-.433-1.312L343.6,362.492q.653.223,1.312.433Z" transform="translate(-297.197 -229.158)" fill="url(#linear-gradient)"/>
        <path id="Path_17" data-name="Path 17" d="M327.3,355.805c.315.269.631.534.95.8l96.392-96.392q-.393-.477-.8-.95Z" transform="translate(-303.156 -235.117)" fill="url(#linear-gradient)"/>
        <path id="Path_18" data-name="Path 18" d="M427.054,263.89c-.234-.346-.471-.691-.713-1.032L330.9,358.3c.343.242.687.478,1.034.713Z" transform="translate(-301.841 -233.801)" fill="url(#linear-gradient)"/>
        <path id="Path_19" data-name="Path 19" d="M428.945,267.875q-.309-.561-.629-1.116L334.8,360.276q.555.32,1.116.629Z" transform="translate(-300.414 -232.375)" fill="url(#linear-gradient)"/>
        <path id="Path_20" data-name="Path 20" d="M430.269,272.19q-.262-.606-.538-1.208l-90.71,90.71q.6.274,1.208.538Z" transform="translate(-298.871 -230.832)" fill="url(#linear-gradient)"/>
        <path id="Path_21" data-name="Path 21" d="M418.262,310q.5-1.333.937-2.682l-43.845,43.847q1.348-.44,2.682-.938Z" transform="translate(-285.591 -217.552)" fill="url(#linear-gradient)"/>
        <path id="Path_22" data-name="Path 22" d="M404.952,246.2q-.6-.274-1.208-.538L313.7,335.7q.262.606.538,1.208Z" transform="translate(-308.125 -240.085)" fill="url(#linear-gradient)"/>
        <path id="Path_23" data-name="Path 23" d="M409.951,248.395q-.555-.32-1.116-.63L315.8,340.8q.309.561.63,1.116Z" transform="translate(-307.357 -239.318)" fill="url(#linear-gradient)"/>
        <path id="Path_24" data-name="Path 24" d="M414.39,250.906c-.341-.242-.687-.478-1.032-.713l-95.126,95.126c.235.346.471.691.713,1.032Z" transform="translate(-306.469 -238.43)" fill="url(#linear-gradient)"/>
        <path id="Path_25" data-name="Path 25" d="M418.306,253.721q-.473-.4-.95-.8l-96.392,96.392q.393.477.795.95Z" transform="translate(-305.471 -237.432)" fill="url(#linear-gradient)"/>
        <path id="Path_26" data-name="Path 26" d="M368.031,242.1c-.7.1-1.39.217-2.084.339l-55.471,55.471c-.123.694-.238,1.387-.339,2.084Z" transform="translate(-309.428 -241.389)" fill="url(#linear-gradient)"/>
        <path id="Path_27" data-name="Path 27" d="M336.581,250.183a68.937,68.937,0,0,0-18.359,18.361Z" transform="translate(-306.473 -238.434)" fill="url(#linear-gradient)"/>
        <path id="Path_28" data-name="Path 28" d="M399.333,244.363q-.655-.223-1.312-.433l-86.052,86.052c.138.438.284.877.432,1.312Z" transform="translate(-308.759 -240.72)" fill="url(#linear-gradient)"/>
        <path id="Path_29" data-name="Path 29" d="M377.655,241.579q-.889.006-1.781.035l-66.221,66.222q-.029.889-.035,1.781Z" transform="translate(-309.618 -241.579)" fill="url(#linear-gradient)"/>
        <path id="Path_30" data-name="Path 30" d="M313.022,285.21q-.5,1.333-.937,2.682l43.847-43.845q-1.35.438-2.682.937Z" transform="translate(-308.716 -240.677)" fill="url(#linear-gradient)"/>
        <path id="Path_31" data-name="Path 31" d="M393.015,242.92q-.717-.164-1.435-.31l-80.931,80.93c.1.479.2.959.311,1.435Z" transform="translate(-309.241 -241.202)" fill="url(#linear-gradient)"/>
        <path id="Path_32" data-name="Path 32" d="M385.861,241.948q-.791-.09-1.581-.163l-74.456,74.455q.074.791.164,1.583Z" transform="translate(-309.543 -241.503)" fill="url(#linear-gradient)"/>
      </g>
      <circle id="Ellipse_1" data-name="Ellipse 1" cx="15.703" cy="15.703" r="15.703" transform="translate(355.202 258.706)" fill="#cfe5ff"/>
      <circle id="Ellipse_2" data-name="Ellipse 2" cx="8.193" cy="8.193" r="8.193" transform="translate(314.237 488.113)" fill="#cfe5ff"/>
      <g id="Group_20" data-name="Group 20" transform="translate(390.803 239.645)">
        <path id="Path_33" data-name="Path 33" d="M424.254,281.393c-2.806-.75-7.21-7.816-10.844-8.137s-8.032,3.96-11.743,1.263-4.054-14.287-8.3-16.6-7.422.28-9.048-2.448.485-12.021-3.318-15.3-6.916-2.189-7.669-5.056,1.514-7.405-1.554-11.7-4.237-9.78.348-7.222,8.682,5.792,13.3,4.763,3.776,6.867,7.057,8.735,8.156-1.29,10.809.38,2.872,10.592,5.1,11.435,11.1-5.341,15.254-3.61-.93,12.987,3.518,14.671,9.86,3.814,9.86,3.814Z" transform="translate(-369.072 -215.54)" fill="#b8e3c2"/>
        <path id="Path_34" data-name="Path 34" d="M376.252,223.763s5.006,16.527,49.866,45.255l2.85-4.632S392.73,248.625,376.252,223.763Z" transform="translate(-366.447 -212.534)" fill="#9ecdbb"/>
      </g>
      <path id="Path_35" data-name="Path 35" d="M376.288,286.1c-10.013,6.676-15.687,39.72,3.672,40.388,13.348.46,18.6-11.565,13.588-15.306-12.587-9.395-27.273,23.649-12.587,30.325,6.929,3.149,13.958-1.872,21.534-7.985,11.595-9.358,24.469-21.273,40.216-10.372" transform="translate(21.009 49.895)" fill="none" stroke="#d8171c" stroke-miterlimit="10" stroke-width="2"/>
      <path id="Path_36" data-name="Path 36" d="M561.991,362.694c0,2.622-8.728,4.748-19.5,4.748s-19.5-2.126-19.5-4.748,8.728-4.747,19.5-4.747S561.991,360.072,561.991,362.694Z" transform="translate(77.994 76.158)" fill="#e5ebf4" style="mix-blend-mode: multiply;isolation: isolate"/>
      <path id="Path_37" data-name="Path 37" d="M480.6,376.388c0,2.622-8.728,4.747-19.5,4.747s-19.5-2.125-19.5-4.747,8.728-4.748,19.5-4.748S480.6,373.766,480.6,376.388Z" transform="translate(48.245 81.163)" fill="#e5ebf4" style="mix-blend-mode: multiply;isolation: isolate"/>
      <path id="Path_38" data-name="Path 38" d="M654.558,357.632H432.842a78.306,78.306,0,0,1-22.852-3.408l-34.474-10.517H715.292l-39.738,11.058A78.275,78.275,0,0,1,654.558,357.632Z" transform="translate(24.087 70.952)" fill="#e5ebf4" style="mix-blend-mode: multiply;isolation: isolate"/>
      <g id="Group_23" data-name="Group 23" transform="translate(654.325 180.507)">
        <path id="Path_39" data-name="Path 39" d="M630.456,206.925c-4.415-.385-10.807-.242-19.842,1.312a17.493,17.493,0,0,0-11.984,8.2c-4.652,7.691-11.849,19.881-13.364,24.146,0,0-12.8-1.995-20.018-6.384l-3.193,6.384s7.359,5.1,29.013,12.185c0,0,6.445-9.7,9.865-19.147,0,0-.72,5.239,1.74,14.506,1.947,7.33-2.618,35.94-2.618,35.94l47.106-1.688-3.871-28.451L649,246.583a9.457,9.457,0,0,0,1.858-7.331,78.528,78.528,0,0,0-8-24.254A15.68,15.68,0,0,0,630.456,206.925Z" transform="translate(-562.055 -159.616)" fill="#d85c1c"/>
        <path id="Path_40" data-name="Path 40" d="M619.611,235.6l-1.741-12.04s-2.32,15.811-3.336,17.7Z" transform="translate(-542.873 -153.471)" fill="#b14800"/>
        <path id="Path_41" data-name="Path 41" d="M608.111,244.3c-2.4.838-8.577,2.806-8.007,4.057.328.722,4.685-.993,5.167-.4.363.444-1.187,2.757-3.974,4.224-2.163,1.139-3.666.9-3.755,1.935-.115,1.308,6.277,1.174,7.911.971a9.113,9.113,0,0,0,4.322-1.824,29.574,29.574,0,0,0,2.924-3.012,24.723,24.723,0,0,1,3.986-3.048l-3.183-5.168S609.492,243.813,608.111,244.3Z" transform="translate(-549.084 -146.72)" fill="#e7d1ad"/>
        <path id="Path_42" data-name="Path 42" d="M600.5,201.795l1,11.468s6.206,5.306,11.611-.684l-3-13.864Z" transform="translate(-548.002 -162.552)" fill="#e0bd82"/>
        <path id="Path_43" data-name="Path 43" d="M620.9,179.8a17.748,17.748,0,0,1,5.25,13.132c0,8.859-10.468,21.361-20.058,21.361-8.454,0-15.306-8.689-15.306-19.405,0-8.214,4.073-15.148,9.712-18.064C608.469,172.7,617.042,176.034,620.9,179.8Z" transform="translate(-551.554 -171.247)" fill="#e7cb9e"/>
        <path id="Path_44" data-name="Path 44" d="M598.375,192.254s-2.611,4.3.532,4.5" transform="translate(-549.151 -164.913)" fill="none" stroke="#e0b695" stroke-miterlimit="10" stroke-width="0.5"/>
        <path id="Path_45" data-name="Path 45" d="M596.027,194.069c0,.853-.96,1.547-2.144,1.547s-2.142-.694-2.142-1.547.96-1.548,2.142-1.548S596.027,193.215,596.027,194.069Z" transform="translate(-551.204 -164.815)" fill="#e0ab82"/>
        <path id="Path_46" data-name="Path 46" d="M608.191,194.167c0,.948-1.165,1.716-2.6,1.716s-2.6-.769-2.6-1.716,1.166-1.716,2.6-1.716S608.191,193.218,608.191,194.167Z" transform="translate(-547.094 -164.841)" fill="#e0ab82"/>
        <ellipse id="Ellipse_3" data-name="Ellipse 3" cx="38.369" cy="6.673" rx="38.369" ry="6.673" transform="translate(17.19 232.41)" fill="#e5ebf4" style="mix-blend-mode: multiply;isolation: isolate"/>
        <g id="Group_21" data-name="Group 21" transform="translate(68.999 214.302)">
          <path id="Path_47" data-name="Path 47" d="M626.77,338.106s2.214.455,1.893,3.793a77.989,77.989,0,0,0-.2,7.837l-.939.363s-.527-4.011-.807-4.052-2.143,4.034-4.348,4.972-7.768,2.719-9.35,1.1c-1.732-1.774,2.136-3.386,4.117-4.557S626.77,338.106,626.77,338.106Z" transform="translate(-612.585 -325.904)" fill="#393939"/>
          <path id="Path_48" data-name="Path 48" d="M618.057,330.645s2.32,9.164,1.192,13.1-4.148,7.3-4.465,8.084,4.15.269,5.731-1.1,5.79-8.5,5.529-9.458a64.206,64.206,0,0,1-.68-12.1Z" transform="translate(-611.786 -329.17)" fill="#e7cb9e"/>
        </g>
        <g id="Group_22" data-name="Group 22" transform="translate(30.633 215.308)">
          <path id="Path_49" data-name="Path 49" d="M600.307,338.822s2.133.747,1.368,4.013a77.927,77.927,0,0,0-1.245,7.74l-.979.235s.014-4.045-.258-4.124-2.564,3.778-4.875,4.413-8.16,1.589-9.512-.229c-1.479-1.99,2.57-3.07,4.691-3.965S600.307,338.822,600.307,338.822Z" transform="translate(-584.488 -326.648)" fill="#393939"/>
          <path id="Path_50" data-name="Path 50" d="M593.013,330.392s1.075,9.392-.569,13.143-5.088,6.679-5.507,7.415,4.077.822,5.828-.328,6.875-7.651,6.744-8.634a64.139,64.139,0,0,1,.944-12.081Z" transform="translate(-583.604 -329.907)" fill="#e7cb9e"/>
        </g>
        <path id="Path_51" data-name="Path 51" d="M591.107,263.821s-3.986,39.918-4.54,53.224c-.49,11.758,5,48.195,5,48.195l9.5-.823s1.124-34.924,3.819-46.565c2.054-8.866,8.212-35.464,8.212-35.464s3.165,25.251,4.219,33.668c1.5,11.958,9.477,48.992,9.477,48.992l11.214-.487s-2.984-37.374-2.817-49.832c.175-13.149,3.022-52.594,3.022-52.594Z" transform="translate(-553.107 -139.371)" fill="#2638a3"/>
        <path id="Path_52" data-name="Path 52" d="M591.107,263.511s-3.986,39.918-4.54,53.224c-.49,11.758,5,48.195,5,48.195l9.5-.823s1.124-34.924,3.819-46.565c2.054-8.866,8.212-35.464,8.212-35.464s-5.466-6.642-7.173-19.1Z" transform="translate(-553.107 -139.062)" fill="#12259a"/>
        <path id="Path_53" data-name="Path 53" d="M627.735,194.341s-2.1,6.5-12.338.606a76.519,76.519,0,0,1-16.726-12.993s-3.339,8.593-8.59,12.04a47.663,47.663,0,0,1,1.279-9.094c1.1-3.466,4.2-10.655,14.988-11.088C630.929,172.825,627.735,194.341,627.735,194.341Z" transform="translate(-551.811 -171.666)" fill="#424242"/>
        <path id="Path_54" data-name="Path 54" d="M619.559,189.851a7.882,7.882,0,0,0,3.472-9.529c-2.193-6.41-10.693-9.874-15.081-4.158" transform="translate(-545.279 -171.853)" fill="#424242"/>
        <path id="Path_55" data-name="Path 55" d="M601.142,189.652c0,.766.4,1.386.89,1.386s.89-.62.89-1.386-.4-1.386-.89-1.386S601.142,188.886,601.142,189.652Z" transform="translate(-547.768 -166.371)" fill="#424242"/>
        <path id="Path_56" data-name="Path 56" d="M594.356,190.034c0,.765.418,1.385.931,1.385s.931-.62.931-1.385-.417-1.386-.931-1.386S594.356,189.268,594.356,190.034Z" transform="translate(-550.248 -166.231)" fill="#424242"/>
        <path id="Path_57" data-name="Path 57" d="M603.933,197.02s-4.386,2.071-7.885.321C595.975,199.191,600.492,202.793,603.933,197.02Z" transform="translate(-549.63 -163.171)" fill="#e5f1ff"/>
        <path id="Path_58" data-name="Path 58" d="M611.573,194.2c-1.166,3.59.137,7.155,2.911,7.965s5.967-1.443,7.134-5.033-.137-7.154-2.911-7.964S612.74,190.608,611.573,194.2Z" transform="translate(-544.111 -166.102)"/>
        <path id="Path_59" data-name="Path 59" d="M618.43,196.893s-5.368,7.979-16.538,5.368" transform="translate(-547.494 -163.217)" fill="none" stroke="#000" stroke-linecap="round" stroke-miterlimit="10" stroke-width="1"/>
        <path id="Path_60" data-name="Path 60" d="M626.2,199.41s2.952-27.011-18.454-27.178c-4.884-.038-13.687,1.785-16.2,10.353" transform="translate(-551.276 -172.232)" fill="none" stroke="#000" stroke-linecap="round" stroke-miterlimit="10" stroke-width="1"/>
      </g>
      <path id="Path_61" data-name="Path 61" d="M653.466,244.727l.014-.014L549.892,187.419a35.643,35.643,0,0,0-34.5,0l-103.61,57.308.014.014a14.685,14.685,0,0,0-7.659,12.9V401.831a14.686,14.686,0,0,0,14.686,14.686H646.461a14.686,14.686,0,0,0,14.686-14.686V257.638A14.683,14.683,0,0,0,653.466,244.727Z" transform="translate(34.549 12.2)" fill="#d49500"/>
      <g id="Group_24" data-name="Group 24" transform="translate(584.244 149.59)">
        <path id="Path_62" data-name="Path 62" d="M510.733,194.07c1.18-2.653,8.849-5.9,9.733-9.437s-2.655-8.552.59-11.8,14.746-1.77,17.694-5.6.885-7.372,3.834-8.552,11.8,2.36,15.631-.885,3.245-6.489,6.194-6.784,7.077,2.655,11.8.295,10.322-2.653,7.077,1.475-7.077,7.669-6.783,12.387-7.374,2.655-9.732,5.6,0,8.257-2.065,10.617-10.913,1.18-12.093,3.244,3.539,11.8,1.18,15.631-12.682-2.95-15.041,1.18-5.308,9.143-5.308,9.143Z" transform="translate(-510.733 -149.59)" fill="#b8e3c2"/>
        <path id="Path_63" data-name="Path 63" d="M569.493,155.6s-17.106,2.36-52.5,42.174l4.128,3.539S542.36,167.986,569.493,155.6Z" transform="translate(-508.443 -147.394)" fill="#9ecdbb"/>
      </g>
      <path id="Rectangle_3" data-name="Rectangle 3" d="M12.333,0h173.6a12.333,12.333,0,0,1,12.333,12.333V202.27a0,0,0,0,1,0,0H0a0,0,0,0,1,0,0V12.333A12.333,12.333,0,0,1,12.333,0Z" transform="translate(468.059 190.399)" fill="url(#linear-gradient-24)"/>
      <g id="Group_25" data-name="Group 25" transform="translate(493.21 220.275)" style="mix-blend-mode: multiply;isolation: isolate">
        <rect id="Rectangle_4" data-name="Rectangle 4" width="147.963" height="1.16" fill="#e1e3e6"/>
        <rect id="Rectangle_5" data-name="Rectangle 5" width="147.963" height="1.161" transform="translate(0 16.352)" fill="#e1e3e6"/>
        <rect id="Rectangle_6" data-name="Rectangle 6" width="147.963" height="1.16" transform="translate(0 32.704)" fill="#e1e3e6"/>
        <rect id="Rectangle_7" data-name="Rectangle 7" width="147.963" height="1.161" transform="translate(0 49.056)" fill="#e1e3e6"/>
        <rect id="Rectangle_8" data-name="Rectangle 8" width="147.963" height="1.161" transform="translate(0 65.408)" fill="#e1e3e6"/>
        <rect id="Rectangle_9" data-name="Rectangle 9" width="147.963" height="1.16" transform="translate(0 81.761)" fill="#e1e3e6"/>
        <rect id="Rectangle_10" data-name="Rectangle 10" width="147.963" height="1.161" transform="translate(0 98.113)" fill="#e1e3e6"/>
        <rect id="Rectangle_11" data-name="Rectangle 11" width="147.963" height="1.16" transform="translate(0 114.465)" fill="#e1e3e6"/>
      </g>
      <path id="Path_64" data-name="Path 64" d="M639.584,251.068,531.4,359.247a.6.6,0,0,1-.849,0L422.372,251.07a25.785,25.785,0,0,0-18.234-7.553h0V379.7a14.686,14.686,0,0,0,14.686,14.686H646.461A14.686,14.686,0,0,0,661.147,379.7V243.517h-3.33A25.784,25.784,0,0,0,639.584,251.068Z" transform="translate(34.549 34.332)" fill="#ffb700"/>
      <path id="Path_65" data-name="Path 65" d="M569.23,300.568,531.4,338.394a.6.6,0,0,1-.849,0L493.308,301.15l-89.181,52.52.014,5.175a14.686,14.686,0,0,0,14.686,14.686H646.465a14.686,14.686,0,0,0,14.686-14.686v-4.626Z" transform="translate(34.545 55.185)" fill="#e7e7e6" style="mix-blend-mode: multiply;isolation: isolate"/>
      <path id="Path_66" data-name="Path 66" d="M661.147,362.077v-4.363L549.892,296.179a35.635,35.635,0,0,0-34.5,0L404.138,357.715v4.363a14.686,14.686,0,0,0,14.686,14.686H646.461A14.686,14.686,0,0,0,661.147,362.077Z" transform="translate(34.549 51.953)" fill="#ffc400"/>
      <g id="Group_26" data-name="Group 26" transform="translate(596.169 397.417)">
        <path id="Path_67" data-name="Path 67" d="M551.649,342.969c0,2.726.436-1.741,8.849-1.741,6.389,0,.58,16.683-9.574,17.263a2.949,2.949,0,0,0-1.741,3.482c.436,2.756,18.423-3.627,18.423-18.568C567.607,333.4,551.649,335.426,551.649,342.969Z" transform="translate(-508.625 -329.065)" fill="#fefefe"/>
        <path id="Path_68" data-name="Path 68" d="M519.466,334.009s1.18,38.819,25.624,38.819c22.106,0,24.612-38.819,24.612-38.819Z" transform="translate(-519.466 -330.009)" fill="#fefefe"/>
        <path id="Path_69" data-name="Path 69" d="M526.413,337.485a25.56,25.56,0,0,1-5.406-1.116c.965,9.417,5.291,35.716,23.52,35.6a18.091,18.091,0,0,0,3.406-.348C531.7,368.687,527.484,346.918,526.413,337.485Z" transform="translate(-518.903 -329.147)" fill="#eaf4ff"/>
        <path id="Path_70" data-name="Path 70" d="M569.7,335.08c0,2.209-11.246,4-25.119,4s-25.117-1.79-25.117-4,11.246-4,25.117-4S569.7,332.87,569.7,335.08Z" transform="translate(-519.466 -331.08)" fill="#eaf4ff"/>
        <ellipse id="Ellipse_4" data-name="Ellipse 4" cx="22.421" cy="3.141" rx="22.421" ry="3.141" transform="translate(2.697 0.859)" fill="#fefefe"/>
        <path id="Path_71" data-name="Path 71" d="M525.134,335.771a130.982,130.982,0,0,0,34.756,0,131.14,131.14,0,0,0-34.756,0Z" transform="translate(-517.394 -329.788)" fill="#606060"/>
      </g>
      <g id="Group_29" data-name="Group 29" transform="translate(390.848 234.183)">
        <path id="Path_72" data-name="Path 72" d="M445.794,211.628c-23.012,1.805-45.375,24.721-49.713,29.394-4.458,4.558-26.27,28-26.963,51.07-.406,13.469,8.883,26.593,14.539,30.969l26-32.662s-4.2-4.18-13.374-6.747c0,0,2.271-11.723,16.338-26.486,13.273-13.928,26.046-17.992,26.046-17.992,3.007,9.042,7.383,13.033,7.383,13.033l31.371-27.548C472.783,219.22,459.228,210.575,445.794,211.628Z" transform="translate(-369.105 -211.54)" fill="#d8171c"/>
        <g id="Group_27" data-name="Group 27" transform="translate(8.764 74.557)">
          <path id="Path_73" data-name="Path 73" d="M407,270.183l-4.643-3.482c-3.057-2.386-11.286,3.049-18.38,12.139s-10.364,18.395-7.307,20.78l4.641,3.482Z" transform="translate(-375.523 -266.14)" fill="#a60006"/>
          <path id="Path_74" data-name="Path 74" d="M398.448,290.03c-7.093,9.092-15.321,14.526-18.38,12.141s.214-11.69,7.307-20.78,15.322-14.526,18.381-12.139S405.541,280.94,398.448,290.03Z" transform="translate(-374.28 -265.208)" fill="#a60006"/>
          <path id="Path_75" data-name="Path 75" d="M380.068,302.171c-3.057-2.387.214-11.69,7.307-20.78s15.322-14.526,18.381-12.139" transform="translate(-374.28 -265.208)" fill="none" stroke="#707070" stroke-miterlimit="10" stroke-width="1" style="mix-blend-mode: screen;isolation: isolate"/>
        </g>
        <g id="Group_28" data-name="Group 28" transform="translate(72.5 7.889)">
          <path id="Path_76" data-name="Path 76" d="M458.156,222.581l-3.912-4.285c-2.559-2.914-11.656.893-20.32,8.5s-13.611,16.14-11.051,19.054l3.912,4.285Z" transform="translate(-422.198 -217.317)" fill="#a60006"/>
          <path id="Path_77" data-name="Path 77" d="M446.058,240.489c-8.663,7.61-17.761,11.416-20.32,8.5s2.388-11.444,11.051-19.054,17.761-11.416,20.32-8.5S454.721,232.88,446.058,240.489Z" transform="translate(-421.151 -216.17)" fill="#a60006"/>
          <path id="Path_78" data-name="Path 78" d="M425.738,248.99c-2.56-2.914,2.388-11.444,11.051-19.054s17.761-11.416,20.32-8.5" transform="translate(-421.151 -216.17)" fill="none" stroke="#707070" stroke-miterlimit="10" stroke-width="1" style="mix-blend-mode: screen;isolation: isolate"/>
        </g>
        <path id="Path_79" data-name="Path 79" d="M371.55,278.908s15.473-42.939,58.8-63.247C430.348,215.661,395.726,231.52,371.55,278.908Z" transform="translate(-368.211 -210.033)" fill="#ffa1a1"/>
        <path id="Path_80" data-name="Path 80" d="M433,231s-12.341,1.441-30.365,17.825c-12.765,11.606-18.761,27.852-18.761,27.852a14.5,14.5,0,0,1,5.048-.171C402.634,241.472,433.075,231.458,433,231Z" transform="translate(-363.707 -204.705)" fill="#a60006"/>
      </g>
      <g id="Group_30" data-name="Group 30" transform="translate(414.985 183.204)">
        <path id="Path_81" data-name="Path 81" d="M412.327,194.127a16.558,16.558,0,0,0,.63,2.435,3.8,3.8,0,0,0,.733,1.327,1.235,1.235,0,0,0,.86.43,2,2,0,0,0,1-.273,2.78,2.78,0,0,0,1.311-1.7,7.839,7.839,0,0,0,.287-2.891,16.23,16.23,0,0,0-.711-3.672,23.076,23.076,0,0,0-1.7-4.062,14.85,14.85,0,0,0-2.919-3.945,9.578,9.578,0,0,0-3.549-2.152,8.995,8.995,0,0,0-4.058-.332,13.4,13.4,0,0,0-4.426,1.5,13.915,13.915,0,0,0-4.964,4.316,15.411,15.411,0,0,0-2.528,5.991,19.82,19.82,0,0,0-.042,6.99,23.691,23.691,0,0,0,2.518,7.3,18.756,18.756,0,0,0,3.718,5.026,12.254,12.254,0,0,0,4.438,2.719,11.122,11.122,0,0,0,4.935.485,15.012,15.012,0,0,0,5.229-1.719,27.435,27.435,0,0,0,3.037-1.85,25.942,25.942,0,0,0,2.289-1.816,15.558,15.558,0,0,0,1.6-1.644,9.354,9.354,0,0,0,.938-1.326,3.8,3.8,0,0,1,.929-.972,1.792,1.792,0,0,1,.849-.329,1.346,1.346,0,0,1,.759.154,3.07,3.07,0,0,1,.646.453l1.525,1.629a24.075,24.075,0,0,1-1.789,2.786,24.864,24.864,0,0,1-2.35,2.72,25.837,25.837,0,0,1-2.978,2.558,29.117,29.117,0,0,1-3.65,2.282,20.218,20.218,0,0,1-7.331,2.351,16.211,16.211,0,0,1-6.886-.7,17,17,0,0,1-6.052-3.579,22.508,22.508,0,0,1-4.8-6.3,25.566,25.566,0,0,1-2.291-6.023,26.346,26.346,0,0,1-.741-6.2,24.9,24.9,0,0,1,.747-6.056,23.146,23.146,0,0,1,2.17-5.559,21.472,21.472,0,0,1,3.527-4.73,19.577,19.577,0,0,1,4.827-3.582,16.463,16.463,0,0,1,6-1.875,15.069,15.069,0,0,1,5.991.541,15.34,15.34,0,0,1,5.392,2.936,17.342,17.342,0,0,1,4.226,5.33,19.954,19.954,0,0,1,2.081,5.969,16.776,16.776,0,0,1,.06,5.732,12.907,12.907,0,0,1-1.871,4.874,9.823,9.823,0,0,1-3.707,3.4,6.3,6.3,0,0,1-1.374.533,4.027,4.027,0,0,1-1.43.111,4.175,4.175,0,0,1-1.4-.4,4.429,4.429,0,0,1-1.308-.991A10.516,10.516,0,0,1,408.9,206.1a8.847,8.847,0,0,1-2.783,2.3,5.6,5.6,0,0,1-2.409.706,4.846,4.846,0,0,1-2.188-.406,5.978,5.978,0,0,1-1.887-1.346,9.378,9.378,0,0,1-1.527-2.141,13.772,13.772,0,0,1-1.187-3.148,14.738,14.738,0,0,1-.436-3.516,15.466,15.466,0,0,1,.43-3.645,13.508,13.508,0,0,1,1.42-3.567,14.664,14.664,0,0,1,2.54-3.243,16.278,16.278,0,0,1,3.766-2.689q.987-.522,1.8-.864a14.083,14.083,0,0,1,1.557-.554,11.8,11.8,0,0,1,1.426-.32c.453-.071.934-.119,1.442-.147Zm-6.128-4.065a7.982,7.982,0,0,0-1.024.452,4.968,4.968,0,0,0-1.89,1.83,8.114,8.114,0,0,0-1.057,2.773,10.288,10.288,0,0,0-.083,3.249,9.318,9.318,0,0,0,1.023,3.236q1.145,2.161,2.6,1.389a3.091,3.091,0,0,0,.818-.643,3.02,3.02,0,0,0,.593-1.039,5.125,5.125,0,0,0,.257-1.5,10.107,10.107,0,0,0-.175-2.059Z" transform="translate(-386.781 -174.207)" fill="#547efd"/>
      </g>
      <circle id="Ellipse_5" data-name="Ellipse 5" cx="4.84" cy="4.84" r="4.84" transform="translate(505.348 167.841)" fill="#ffb700"/>
      <circle id="Ellipse_6" data-name="Ellipse 6" cx="2.42" cy="2.42" r="2.42" transform="translate(403.989 405.13)" fill="#ffb700"/>
      <path id="Path_82" data-name="Path 82" d="M649.946,169.53a6.675,6.675,0,1,1-6.676-6.676A6.676,6.676,0,0,1,649.946,169.53Z" transform="translate(119.515 4.848)" fill="#c3f0ce"/>
      <circle id="Ellipse_7" data-name="Ellipse 7" cx="31.542" cy="31.542" r="31.542" transform="translate(479.575 395.672)" fill="#3f69d0"/>
      <path id="Path_83" data-name="Path 83" d="M465.175,347.187a7.134,7.134,0,1,0-7.135-7.135A7.134,7.134,0,0,0,465.175,347.187Zm-2.69,33.456c-2.5-2.274,9.221-21.832,7.684-28.2-1.12-4.637-19.788-1.591-19.98-.227,0,0,5.38-.683,6.34,1.819s-6.34,17.511-7.684,23.2,5,7.5,9.221,7.5c5,0,13.064-3.411,12.871-5S464.983,382.919,462.485,380.644Z" transform="translate(50.823 67.009)" fill="#f7fbfc"/>
      <g id="Group_31" data-name="Group 31" transform="translate(661.772 167.254)">
        <path id="Path_84" data-name="Path 84" d="M596.037,172.418v-.679a9.214,9.214,0,0,0-9.213-9.213h-10.1a9.212,9.212,0,0,0-9.212,9.213v.679a9.211,9.211,0,0,0,9.212,9.212h10.1c.122,0,.239-.012.359-.018a10.07,10.07,0,0,0,8.249,4.667,8.108,8.108,0,0,1-4.1-5.831A9.206,9.206,0,0,0,596.037,172.418Z" transform="translate(-567.509 -162.526)" fill="#ffb700"/>
        <path id="Path_85" data-name="Path 85" d="M575.881,169.982a1.545,1.545,0,1,1-1.546-1.546A1.545,1.545,0,0,1,575.881,169.982Z" transform="translate(-565.578 -160.366)" fill="#fefefe"/>
        <path id="Path_86" data-name="Path 86" d="M580,169.982a1.545,1.545,0,1,1-1.546-1.546A1.545,1.545,0,0,1,580,169.982Z" transform="translate(-564.074 -160.366)" fill="#fefefe"/>
        <path id="Path_87" data-name="Path 87" d="M584.111,169.982a1.546,1.546,0,1,1-1.546-1.546A1.545,1.545,0,0,1,584.111,169.982Z" transform="translate(-562.57 -160.366)" fill="#fefefe"/>
      </g>
    </g>
  </g>
</svg>
