<svg xmlns="http://www.w3.org/2000/svg" width="129" height="119" viewBox="0 0 129 119">
  <g id="Group_57060" data-name="Group 57060" transform="translate(-81.852 -249)">
    <path id="Path_1" data-name="Path 1" d="M77.531,14.453V63.519a2.228,2.228,0,0,0-.041.734,12.376,12.376,0,0,1-.245,1.713,13.671,13.671,0,0,1-1.305,3.752,15.045,15.045,0,0,1-3.712,4.609,14.086,14.086,0,0,1-4.364,2.488,15.069,15.069,0,0,1-3.752.816H14.394a4.907,4.907,0,0,0-.775,0c-.367-.041-.693-.082-1.06-.122a14.294,14.294,0,0,1-2.284-.53,15.506,15.506,0,0,1-4.65-2.488,14.715,14.715,0,0,1-3.671-4.4A14.263,14.263,0,0,1,.2,63.763a3.488,3.488,0,0,0,0-.653V14.29a14.643,14.643,0,0,1,1.55-6A14.679,14.679,0,0,1,6.6,2.788,15.724,15.724,0,0,1,10.519.912,15.381,15.381,0,0,1,14.108.3h49.27a2.228,2.228,0,0,0,.734.041.517.517,0,0,1,.245.041.245.245,0,0,0,.163.041c.163,0,.285.041.449.041,0,.041.041.041.082,0h.082a.368.368,0,0,0,.2.041.15.15,0,0,1,.122.041.368.368,0,0,0,.2.041c.041,0,.082,0,.082.041a.15.15,0,0,0,.122.041c.122.041.245.041.367.082.041.041.082.041.163.041a.15.15,0,0,1,.122.041c.082.041.122.082.2.082.082.041.2.041.286.082a.3.3,0,0,0,.245.082c.041,0,.082.041.122.041,0,.041.041.041.082.041.571.2,1.142.408,1.672.653a14.157,14.157,0,0,1,4.4,3.181,14.573,14.573,0,0,1,3.059,4.894,13.211,13.211,0,0,1,.857,3.956C77.49,13.882,77.449,14.167,77.531,14.453ZM19.247,58.094V70.9c0,.285,0,.326.286.326a11.847,11.847,0,0,0,2.937-.163,11.083,11.083,0,0,0,7.749-5.914A11.035,11.035,0,0,0,31.4,60.174V47.938c0-.122-.041-.163-.163-.163H29.811a.418.418,0,0,1-.285-.693l.122-.122c.53-.571,1.02-1.142,1.55-1.713a.524.524,0,0,0,.163-.408V35.131c0-.2,0-.2-.163-.2a9.843,9.843,0,0,0-2.447.082,10.413,10.413,0,0,0-2.733.734,11.238,11.238,0,0,0-5.628,5.18,10.525,10.525,0,0,0-1.224,4.935C19.247,49.937,19.247,54.015,19.247,58.094ZM58.483,47.938V35.213c0-.285.082-.326-.326-.326a11.673,11.673,0,0,0-3.141.245,10.542,10.542,0,0,0-3.752,1.591,10.974,10.974,0,0,0-4.894,8.116.338.338,0,0,0,.122.326c.286.285.53.571.816.857.286.326.612.653.9.979a.448.448,0,0,1-.326.775h-1.06c-.449,0-.449,0-.449.449v22.8c0,.2,0,.2.2.2a11.918,11.918,0,0,0,2.692-.122,11.317,11.317,0,0,0,2.366-.693,10.9,10.9,0,0,0,4.446-3.344,11.417,11.417,0,0,0,1.835-3.3,11.277,11.277,0,0,0,.612-3.467C58.524,56.177,58.483,52.058,58.483,47.938Zm-25.7,11.542V71.023c0,.122.041.163.163.2a11.649,11.649,0,0,0,5.425-.938A11.137,11.137,0,0,0,44,64.661a9.7,9.7,0,0,0,.938-4.16c.041-4.16,0-8.32,0-12.521,0-.245,0-.245-.245-.245H43.6a.439.439,0,0,1-.326-.082A.422.422,0,0,1,43.229,47l1.591-1.835a.542.542,0,0,0,.122-.326V35.131c0-.245,0-.245-.245-.286a13.245,13.245,0,0,0-2.2.041,10.8,10.8,0,0,0-2.57.653,11.062,11.062,0,0,0-5.261,4.16,10.857,10.857,0,0,0-1.835,4.935.586.586,0,0,0,.2.612c.082.082.122.163.2.2.449.489.9.979,1.305,1.468a.733.733,0,0,1,.163.367.411.411,0,0,1-.449.367H33.074c-.326,0-.286,0-.326.286v.367C32.788,52.139,32.788,55.81,32.788,59.481ZM47.879,19.51H44.127a2.372,2.372,0,0,0-2.121,2.284v7.423a.108.108,0,0,0,.122.122h7.464a1.129,1.129,0,0,0,.367-.041,2.375,2.375,0,0,0,1.917-2.366V19.551c0-.082-.041-.163-.122-.122h-.2C50.326,19.51,49.1,19.51,47.879,19.51Zm-13.011,0H31.483a3.4,3.4,0,0,0-.9.122A2.433,2.433,0,0,0,29,21.917V29.34a.088.088,0,0,0,.082.082h7.545a2.128,2.128,0,0,0,1.713-.9,2.494,2.494,0,0,0,.53-1.591v-7.26a.108.108,0,0,0-.122-.122h-.2C37.315,19.51,36.092,19.51,34.868,19.51ZM45.31,10.5h0V6.744c0-.245,0-.245-.245-.245H37.8a2.63,2.63,0,0,0-.816.122A2.341,2.341,0,0,0,35.4,8.906v7.382a.108.108,0,0,0,.122.122h7.464a1.655,1.655,0,0,0,.775-.163A2.4,2.4,0,0,0,45.269,14C45.31,12.862,45.31,11.679,45.31,10.5Z" transform="translate(112.32 248.822)" fill="#fff"/>
    <path id="Path_5" data-name="Path 5" d="M156.9,189.621Z" transform="translate(19.532 136.75)" fill="#fffffe"/>
    <path id="Path_6" data-name="Path 6" d="M.082,83.774H0V34.3H.082V83.121A3.48,3.48,0,0,1,.082,83.774Z" transform="translate(112.439 228.689)" fill="#fff3b6"/>
    <path id="Path_7" data-name="Path 7" d="M34.3.041V0H83.57V.041H34.3Z" transform="translate(92.129 249)" fill="#fea"/>
    <path id="Path_8" data-name="Path 8" d="M34.9,189.7H84.007v.041H34.9Z" transform="translate(91.773 136.671)" fill="#fce05d"/>
    <path id="Path_9" data-name="Path 9" d="M155.1.041V0h.653c0,.041.041.041.082.082A2.228,2.228,0,0,1,155.1.041Z" transform="translate(20.599 249)" fill="#f6ec7f"/>
    <path id="Path_10" data-name="Path 10" d="M189.685,32.9h.041v.816A2.676,2.676,0,0,1,189.685,32.9Z" transform="translate(0.125 229.519)" fill="#f6ec7f"/>
    <path id="Path_11" data-name="Path 11" d="M33.775,189.7v.041H33V189.7Z" transform="translate(92.898 136.671)" fill="#f7f0a2"/>
    <path id="Path_12" data-name="Path 12" d="M189.726,155.934h-.041a2.228,2.228,0,0,1,.041-.734Z" transform="translate(0.125 157.1)" fill="#f6ec7f"/>
    <path id="Path_13" data-name="Path 13" d="M155.4,189.741V189.7h.612v.041Z" transform="translate(20.421 136.671)" fill="#f7f0a2"/>
    <path id="Path_14" data-name="Path 14" d="M46.9,108.331V96.1a10.407,10.407,0,0,1,1.224-4.935,11.058,11.058,0,0,1,8.361-5.914,12.287,12.287,0,0,1,2.447-.082c.163,0,.163,0,.163.2v9.707a.524.524,0,0,1-.163.408c-.53.571-1.06,1.142-1.55,1.713l-.122.122a.431.431,0,0,0,.285.693h1.428c.122,0,.163.041.163.163v12.236a10.528,10.528,0,0,1-1.183,4.976A11.083,11.083,0,0,1,50.2,121.3a10.169,10.169,0,0,1-2.937.163c-.286-.041-.286-.041-.286-.326C46.9,116.855,46.9,112.614,46.9,108.331Z" transform="translate(84.668 198.585)" fill="#fee20a"/>
    <path id="Path_15" data-name="Path 15" d="M125.454,98.132V110.49a11.03,11.03,0,0,1-2.447,6.771,10.9,10.9,0,0,1-4.446,3.344,12.087,12.087,0,0,1-2.366.693,11.919,11.919,0,0,1-2.692.122c-.2,0-.2,0-.2-.2v-22.8c0-.449,0-.449.449-.449h1.06a.4.4,0,0,0,.367-.163.447.447,0,0,0-.041-.612c-.285-.326-.612-.653-.9-.979-.285-.286-.53-.571-.816-.857a.463.463,0,0,1-.122-.326,10.9,10.9,0,0,1,1.754-4.976,11.146,11.146,0,0,1,6.893-4.731,11.546,11.546,0,0,1,3.141-.245c.408,0,.326.041.326.326C125.5,89.648,125.454,93.89,125.454,98.132Z" transform="translate(45.35 198.629)" fill="#fee20a"/>
    <path id="Path_16" data-name="Path 16" d="M80.1,109.774V98.353c0-.326-.041-.286.326-.286h1.183a.415.415,0,0,0,.449-.367.4.4,0,0,0-.163-.367c-.449-.489-.9-.979-1.305-1.468-.082-.082-.122-.163-.2-.2a.673.673,0,0,1-.2-.612,10.686,10.686,0,0,1,1.835-4.935A11.263,11.263,0,0,1,89.846,85.3a13.244,13.244,0,0,1,2.2-.041c.245,0,.245.041.245.285v9.707a.463.463,0,0,1-.122.326L90.58,97.415a.425.425,0,0,0,.041.653.439.439,0,0,0,.326.082h1.1c.245,0,.245,0,.245.245v12.521a10.651,10.651,0,0,1-.938,4.16,11.137,11.137,0,0,1-5.628,5.628,10.068,10.068,0,0,1-3.059.857,15.3,15.3,0,0,1-2.366.082c-.122,0-.163-.041-.163-.2v-.489C80.1,117.156,80.1,113.485,80.1,109.774Z" transform="translate(65.011 198.529)" fill="#fee20a"/>
    <path id="Path_17" data-name="Path 17" d="M108.573,47.4h3.875a.108.108,0,0,1,.122.122V54.9a2.408,2.408,0,0,1-1.917,2.366,1.129,1.129,0,0,1-.367.041h-7.464a.108.108,0,0,1-.122-.122V49.766a2.372,2.372,0,0,1,2.121-2.284c.612-.041,1.183,0,1.795,0A15.718,15.718,0,0,1,108.573,47.4Z" transform="translate(51.626 220.933)" fill="#fee20a"/>
    <path id="Path_18" data-name="Path 18" d="M76.732,47.341h3.915a.108.108,0,0,1,.122.122v7.26a2.219,2.219,0,0,1-.53,1.591,2.381,2.381,0,0,1-1.713.9H70.982a.088.088,0,0,1-.082-.082V49.706a2.474,2.474,0,0,1,1.591-2.284,3.4,3.4,0,0,1,.9-.122c1.1.041,2.2.041,3.344.041Z" transform="translate(70.456 220.992)" fill="#fee20a"/>
    <path id="Path_19" data-name="Path 19" d="M96.47,19.5V23a2.447,2.447,0,0,1-1.509,2.243,2.633,2.633,0,0,1-.775.163H86.722a.108.108,0,0,1-.122-.122V17.906a2.378,2.378,0,0,1,1.591-2.284,2.63,2.63,0,0,1,.816-.122h7.26c.245,0,.245,0,.245.245-.041,1.264-.041,2.529-.041,3.752Z" transform="translate(61.16 239.822)" fill="#fee20a"/>
    <path id="Path_20" data-name="Path 20" d="M159.3.461c.082-.041.163-.041.2.041A.443.443,0,0,1,159.3.461Z" transform="translate(18.111 248.743)" fill="#f6ec7f"/>
    <path id="Path_21" data-name="Path 21" d="M164.1,1.5a.437.437,0,0,1,.245.082A.58.58,0,0,1,164.1,1.5Z" transform="translate(15.27 248.112)" fill="#f6ec7f"/>
    <path id="Path_22" data-name="Path 22" d="M160.2.575a.179.179,0,0,1,.2.041A.443.443,0,0,1,160.2.575Z" transform="translate(17.578 248.669)" fill="#f6ec7f"/>
    <path id="Path_23" data-name="Path 23" d="M162.8,1.2c.082,0,.163,0,.2.082C162.963,1.241,162.882,1.241,162.8,1.2Z" transform="translate(16.039 248.29)" fill="#f6ec7f"/>
    <path id="Path_24" data-name="Path 24" d="M157.5.175c.041-.041.122,0,.163.041C157.582.257,157.541.216,157.5.175Z" transform="translate(19.177 248.906)" fill="#f6ec7f"/>
    <path id="Path_25" data-name="Path 25" d="M162.1.975c.082-.041.122,0,.163.041C162.182,1.016,162.141,1.016,162.1.975Z" transform="translate(16.453 248.433)" fill="#f6ec7f"/>
    <path id="Path_26" data-name="Path 26" d="M161,.7a.15.15,0,0,1,.122.041C161.041.782,161,.741,161,.7Z" transform="translate(17.104 248.585)" fill="#f6ec7f"/>
    <path id="Path_27" data-name="Path 27" d="M159,.4h.082C159.041.441,159,.441,159,.4Z" transform="translate(18.289 248.763)" fill="#f6ec7f"/>
    <path id="Path_28" data-name="Path 28" d="M165,1.8c.041,0,.041,0,.082.041C165.041,1.841,165.041,1.8,165,1.8Z" transform="translate(14.736 247.934)" fill="#f6ec7f"/>
    <text id="منصة_شغف" data-name="منصة شغف" transform="translate(82.352 361.5)" fill="#fffffe" stroke="#fff" stroke-width="0.5" font-size="25" font-family="SegoeUI-Bold, Segoe UI" font-weight="700"><tspan x="0" y="0">منصة شغف</tspan></text>
  </g>
</svg>
