<svg xmlns="http://www.w3.org/2000/svg" xmlns:xlink="http://www.w3.org/1999/xlink" width="101.289" height="122.875" viewBox="0 0 101.289 122.875">
  <defs>
    <linearGradient id="linear-gradient" y1="0.5" x2="1" y2="0.5" gradientUnits="objectBoundingBox">
      <stop offset="0" stop-color="#7bd6b4"/>
      <stop offset="0.189" stop-color="#72c7bb"/>
      <stop offset="0.547" stop-color="#5da2ce"/>
      <stop offset="1" stop-color="#3d6bec"/>
    </linearGradient>
  </defs>
  <g id="Group_56956" data-name="Group 56956" transform="translate(-356.711 -232.689)">
    <g id="Group_54027" data-name="Group 54027" transform="translate(356.711 232.689)">
      <path id="Path_199807" data-name="Path 199807" d="M407.356,232.689c-27.757,15.343-50.645,11.5-50.645,11.5v39.842a73.983,73.983,0,0,0,30.836,60.309,102.159,102.159,0,0,0,19.808,11.221,102.159,102.159,0,0,0,19.809-11.221A73.983,73.983,0,0,0,458,284.034V244.192S435.112,248.032,407.356,232.689Z" transform="translate(-356.711 -232.689)" fill="#3c3687"/>
      <path id="Path_199808" data-name="Path 199808" d="M408.869,351.343a104.645,104.645,0,0,1-16.649-9.72,68.612,68.612,0,0,1-28.549-55.874V251.766q.724.015,1.524.016c8.384,0,24.9-1.5,43.674-11.2,18.77,9.705,35.29,11.2,43.674,11.2q.8,0,1.524-.016V285.75a68.612,68.612,0,0,1-28.549,55.874A104.645,104.645,0,0,1,408.869,351.343Z" transform="translate(-358.225 -234.405)" fill="url(#linear-gradient)"/>
      <path id="Path_199809" data-name="Path 199809" d="M445.2,251.43a99.238,99.238,0,0,1-36.33-10.85c-18.769,9.705-35.289,11.2-43.674,11.2q-.8,0-1.524-.016V285.75a68.684,68.684,0,0,0,26.26,54.157C429.035,313.531,441.469,276.5,445.2,251.43Z" transform="translate(-358.225 -234.405)" fill="#fff" opacity="0.15"/>
    </g>
    <g id="Group_54029" data-name="Group 54029" transform="translate(386.066 254.992)">
      <g id="Group_54028" data-name="Group 54028" transform="translate(6.688)">
        <path id="Path_199810" data-name="Path 199810" d="M436.07,289.215h-3.738v-9.192a10.863,10.863,0,1,0-21.725,0v9.192h-3.738v-9.192a14.6,14.6,0,1,1,29.2,0Z" transform="translate(-406.868 -265.422)" fill="#5044a5"/>
      </g>
      <rect id="Rectangle_248" data-name="Rectangle 248" width="42.578" height="42.578" rx="9.265" transform="translate(0 23.221)" fill="#f0d45e"/>
      <rect id="Rectangle_249" data-name="Rectangle 249" width="37.238" height="37.237" rx="6.602" transform="translate(2.67 25.891)" fill="#e1aa3d"/>
      <path id="Path_199811" data-name="Path 199811" d="M426.238,306.286a4.8,4.8,0,0,0-4.934-4.794,4.851,4.851,0,0,0-4.656,4.955,4.8,4.8,0,0,0,2.994,4.284v7.445h3.6V310.73A4.8,4.8,0,0,0,426.238,306.286Z" transform="translate(-400.153 -265.323)" fill="#5044a5"/>
    </g>
  </g>
</svg>
