<svg id="mail-send" xmlns="http://www.w3.org/2000/svg" width="33.519" height="16.992" viewBox="0 0 33.519 16.992">
  <path id="Path_203990" data-name="Path 203990" d="M76.583,102.238l.037-.009.032-.008.036-.013.031-.012.033-.015.032-.015.03-.018.031-.019.031-.023.026-.02c.016-.013.031-.027.045-.041l.008-.007.008-.009c.014-.014.028-.029.04-.045l.021-.028.021-.029c.007-.011.013-.022.02-.033l.017-.028c.006-.011.011-.023.016-.034l.014-.03c0-.011.008-.022.012-.034s.008-.022.012-.033.006-.023.009-.035.006-.023.008-.034,0-.027.006-.041,0-.019,0-.029,0-.048,0-.072V85.987a.727.727,0,0,0-.727-.727H53.524l-.041,0-.033,0-.037.006-.034.007-.035.009-.034.01-.034.012-.031.013-.034.016-.028.015-.033.02-.027.018-.03.023-.027.022-.026.023-.028.028L53,85.505l-.007.009-.026.033-.018.025-.022.033-.017.028c-.006.011-.011.022-.017.033l-.015.031c0,.011-.009.022-.013.033s-.008.022-.012.033-.006.022-.01.034-.006.023-.009.035,0,.022-.006.033,0,.025-.006.038,0,.021,0,.032,0,.027,0,.041,0,.008,0,.012V90.47a.727.727,0,1,0,1.454,0V87.6l6.463,5.722a.734.734,0,0,0-.1.08L54.27,99.77V94.993a.727.727,0,0,0-1.454,0v.888H49.06a.727.727,0,1,0,0,1.454h3.756v4.19a.727.727,0,0,0,.727.727h22.9c.024,0,.048,0,.072,0l.033,0Zm-.869-2.468L69.347,93.4l-.013-.011,4.786-4.061a.727.727,0,1,0-.941-1.109L65,95.162,55.46,86.714H75.714Zm-14.05-5.338a.724.724,0,0,0,.127-.171l2.719,2.407a.727.727,0,0,0,.952.01l2.771-2.351a.731.731,0,0,0,.086.1l6.367,6.367H55.3Z" transform="translate(-43.648 -85.26)"/>
  <path id="Path_203991" data-name="Path 203991" d="M.727,157.13H13a.727.727,0,1,0,0-1.454H.727a.727.727,0,1,0,0,1.454Z" transform="translate(0 -148.851)"/>
  <path id="Path_203992" data-name="Path 203992" d="M13.852,115.8h5.512a.727.727,0,1,0,0-1.454H13.852a.727.727,0,0,0,0,1.454Z" transform="translate(-11.853 -111.526)"/>
  <path id="Path_203993" data-name="Path 203993" d="M6.058,226.51H.727a.727.727,0,0,0,0,1.454H6.058a.727.727,0,0,0,0-1.454Z" transform="translate(0 -212.82)"/>
</svg>
