<svg xmlns="http://www.w3.org/2000/svg" width="94.73" height="94.73" viewBox="0 0 94.73 94.73">
  <g id="vector" transform="translate(0)">
    <path id="Path_68317" data-name="Path 68317" d="M170.107,167.333a35.757,35.757,0,0,0-10.157,22.221,2.782,2.782,0,0,1-2.775,2.553H134.75a2.782,2.782,0,0,1-2.775-2.553,35.756,35.756,0,0,0-10.157-22.221,2.771,2.771,0,0,1-.389-3.5L143.187,131.2l2.442,4.33.333-.444,2.775-3.885L170.5,163.836A2.771,2.771,0,0,1,170.107,167.333Z" transform="translate(-98.597 -106.925)"/>
    <path id="Path_68318" data-name="Path 68318" d="M280.145,167.333a35.757,35.757,0,0,0-10.157,22.221,2.782,2.782,0,0,1-2.775,2.553H256V135.084l2.775-3.885,21.758,32.637A2.771,2.771,0,0,1,280.145,167.333Z" transform="translate(-208.634 -106.925)"/>
    <path id="Path_68319" data-name="Path 68319" d="M175.978,422h-11.1A13.882,13.882,0,0,0,151,435.877a2.748,2.748,0,0,0,2.775,2.775h33.3a2.748,2.748,0,0,0,2.775-2.775A13.882,13.882,0,0,0,175.978,422Z" transform="translate(-123.062 -343.922)" fill="#fee101"/>
    <path id="Path_68320" data-name="Path 68320" d="M275.427,435.877a2.748,2.748,0,0,1-2.775,2.775H256V422h5.551A13.882,13.882,0,0,1,275.427,435.877Z" transform="translate(-208.634 -343.922)" fill="#f8bc0e"/>
    <path id="Path_68321" data-name="Path 68321" d="M133.158,32.775a2.748,2.748,0,0,1-2.775,2.775H63.775a2.775,2.775,0,1,1,0-5.551h66.607A2.748,2.748,0,0,1,133.158,32.775Z" transform="translate(-49.713 -24.449)"/>
    <path id="Path_68322" data-name="Path 68322" d="M292.079,32.775a2.748,2.748,0,0,1-2.775,2.775H256V30h33.3A2.748,2.748,0,0,1,292.079,32.775Z" transform="translate(-208.634 -24.449)"/>
    <path id="Path_68323" data-name="Path 68323" d="M63.775,70.853A2.774,2.774,0,0,1,61,68.077,35.946,35.946,0,0,1,91.089,32.495a2.775,2.775,0,1,1,.916,5.475A30.415,30.415,0,0,0,66.551,68.077,2.774,2.774,0,0,1,63.775,70.853Z" transform="translate(-49.713 -26.448)"/>
    <path id="Path_68324" data-name="Path 68324" d="M301.443,70.85a2.774,2.774,0,0,1-2.775-2.775,30.415,30.415,0,0,0-25.455-30.108,2.775,2.775,0,0,1,.916-5.475,35.946,35.946,0,0,1,30.089,35.583A2.774,2.774,0,0,1,301.443,70.85Z" transform="translate(-220.774 -26.445)"/>
    <path id="Path_68325" data-name="Path 68325" d="M39.326,226.652a8.326,8.326,0,1,1,8.326-8.326A8.335,8.335,0,0,1,39.326,226.652Z" transform="translate(-25.264 -171.146)" fill="#fee101"/>
    <path id="Path_68326" data-name="Path 68326" d="M63.775,245.551a2.775,2.775,0,1,1,2.775-2.775A2.778,2.778,0,0,1,63.775,245.551Z" transform="translate(-49.713 -195.595)"/>
    <path id="Path_68327" data-name="Path 68327" d="M399.326,226.652a8.326,8.326,0,1,1,8.326-8.326A8.335,8.335,0,0,1,399.326,226.652Z" transform="translate(-318.657 -171.146)" fill="#fee101"/>
    <path id="Path_68328" data-name="Path 68328" d="M423.775,245.551a2.775,2.775,0,1,1,2.775-2.775A2.778,2.778,0,0,1,423.775,245.551Z" transform="translate(-343.106 -195.595)"/>
    <g id="Group_39198" data-name="Group 39198" transform="translate(0.001)">
      <path id="Path_68329" data-name="Path 68329" d="M219.326,0a8.326,8.326,0,1,0,8.326,8.326A8.315,8.315,0,0,0,219.326,0Z" transform="translate(-171.961)" fill="#fee101"/>
      <path id="Path_68330" data-name="Path 68330" d="M13.876,16.652H2.775A2.774,2.774,0,0,1,0,13.876V2.775A2.774,2.774,0,0,1,2.775,0h11.1a2.774,2.774,0,0,1,2.775,2.775v11.1A2.774,2.774,0,0,1,13.876,16.652Z" transform="translate(0)" fill="#f8bc0e"/>
    </g>
    <rect id="Rectangle_8067" data-name="Rectangle 8067" width="7.447" height="4.256" transform="translate(4.159 7.489)"/>
    <path id="Path_68331" data-name="Path 68331" d="M435.877,16.652h-11.1A2.774,2.774,0,0,1,422,13.876V2.775A2.774,2.774,0,0,1,424.775,0h11.1a2.774,2.774,0,0,1,2.775,2.775v11.1A2.774,2.774,0,0,1,435.877,16.652Z" transform="translate(-343.921)" fill="#f8bc0e"/>
    <rect id="Rectangle_8068" data-name="Rectangle 8068" width="5.32" height="4.256" transform="translate(82.889 7.489)"/>
    <g id="Group_39199" data-name="Group 39199" transform="translate(39.04 22.443)">
      <path id="Path_68332" data-name="Path 68332" d="M219.326,271a8.326,8.326,0,1,0,8.326,8.326A8.314,8.314,0,0,0,219.326,271Z" transform="translate(-211 -243.303)" fill="#fff"/>
      <path id="Path_68333" data-name="Path 68333" d="M246.551,123.132v28.641a2.775,2.775,0,0,1-5.551,0V123.132l.444-.666a2.914,2.914,0,0,1,4.662,0Z" transform="translate(-235.449 -121.3)" fill="#fff"/>
    </g>
    <path id="Path_68334" data-name="Path 68334" d="M256,16.652V0a8.326,8.326,0,1,1,0,16.652Z" transform="translate(-208.634)" fill="#f8bc0e"/>
    <path id="Path_68335" data-name="Path 68335" d="M243.775,35.551a2.775,2.775,0,1,1,2.775-2.775A2.778,2.778,0,0,1,243.775,35.551Z" transform="translate(-196.41 -24.449)"/>
    <path id="Path_68336" data-name="Path 68336" d="M258.775,32.775A2.779,2.779,0,0,0,256,30v5.551A2.779,2.779,0,0,0,258.775,32.775Z" transform="translate(-208.634 -24.449)"/>
    <g id="Group_39200" data-name="Group 39200" transform="translate(47.366 22.443)">
      <path id="Path_68337" data-name="Path 68337" d="M256,154.548V121.3a2.84,2.84,0,0,1,2.331,1.165l.444.666v28.641A2.748,2.748,0,0,1,256,154.548Z" transform="translate(-256 -121.3)" fill="#fff"/>
      <path id="Path_68338" data-name="Path 68338" d="M264.326,279.326A8.315,8.315,0,0,1,256,287.652V271A8.314,8.314,0,0,1,264.326,279.326Z" transform="translate(-256 -243.303)" fill="#fff"/>
    </g>
  </g>
</svg>
