<svg xmlns="http://www.w3.org/2000/svg" width="94.31" height="94.31" viewBox="0 0 94.31 94.31">
  <g id="stock" transform="translate(0)">
    <path id="Path_68006" data-name="Path 68006" d="M99.268,11.042v9.127H8V11.042A3.051,3.051,0,0,1,11.042,8H96.226A3.051,3.051,0,0,1,99.268,11.042Zm0,0" transform="translate(-6.479 -6.479)" fill="#fee101"/>
    <path id="Path_68007" data-name="Path 68007" d="M99.268,72v79.1H8V72Zm0,0" transform="translate(-6.479 -58.31)" fill="#fff"/>
    <path id="Path_68008" data-name="Path 68008" d="M397.69,393.127l-4.563,4.563-4.563-4.563-3.042,3.042L384,384l12.169,1.521-3.042,3.042Zm0,0" transform="translate(-310.986 -310.986)" fill="#fee101"/>
    <g id="Group_38951" data-name="Group 38951" transform="translate(56.282 24.338)">
      <path id="Path_68009" data-name="Path 68009" d="M430.084,136v6.085H424V136Zm0,0" transform="translate(-399.662 -134.479)" fill="#fee101"/>
      <path id="Path_68010" data-name="Path 68010" d="M366.085,184v6.085H360V184Zm0,0" transform="translate(-347.831 -173.352)" fill="#fee101"/>
      <path id="Path_68011" data-name="Path 68011" d="M302.085,128v6.084H296V128Zm0,0" transform="translate(-296 -128)" fill="#fee101"/>
    </g>
    <path id="Path_68012" data-name="Path 68012" d="M296.73,253.019a3.014,3.014,0,0,1-.73-1.977,3.043,3.043,0,1,1,.73,1.977Zm0,0" transform="translate(-239.718 -200.845)" fill="#fee101"/>
    <path id="Path_68013" data-name="Path 68013" d="M245.354,297.065a3.014,3.014,0,0,1,.73,1.977,3.042,3.042,0,1,1-.73-1.977Zm0,0" transform="translate(-194.366 -239.718)" fill="#fee101"/>
    <path id="Path_68014" data-name="Path 68014" d="M243.042,384A3.042,3.042,0,1,1,240,387.042a2.894,2.894,0,0,1,.441-1.566A3.048,3.048,0,0,1,243.042,384Zm0,0" transform="translate(-194.366 -310.986)" fill="#fee101"/>
    <path id="Path_68015" data-name="Path 68015" d="M58.254,104A18.254,18.254,0,1,1,40,122.254,18.249,18.249,0,0,1,58.254,104Zm0,0" transform="translate(-32.395 -84.225)" fill="#fee101"/>
    <path id="Path_68016" data-name="Path 68016" d="M166.085,339.042a2.894,2.894,0,0,1-.441,1.566,3.028,3.028,0,0,1-5.172.046,2.942,2.942,0,0,1-.472-1.612,3.042,3.042,0,1,1,6.085,0Zm0,0" transform="translate(-129.578 -272.113)" fill="#fee101"/>
    <path id="Path_68017" data-name="Path 68017" d="M122.648,167.606,112,175.211V160Zm0,0" transform="translate(-90.704 -129.577)" fill="#e6e9ed"/>
    <path id="Path_68018" data-name="Path 68018" d="M102.085,427.042A3.042,3.042,0,1,1,99.042,424,3.042,3.042,0,0,1,102.085,427.042Zm0,0" transform="translate(-77.747 -343.38)" fill="#fee101"/>
    <path id="Path_68019" data-name="Path 68019" d="M46.085,323.042A3.042,3.042,0,1,1,43.042,320,3.042,3.042,0,0,1,46.085,323.042Zm0,0" transform="translate(-32.395 -259.155)" fill="#fee101"/>
    <path id="Path_68020" data-name="Path 68020" d="M89.747,0H4.563A4.569,4.569,0,0,0,0,4.563V94.31H94.31V4.563A4.569,4.569,0,0,0,89.747,0ZM4.563,3.042H89.747a1.522,1.522,0,0,1,1.521,1.521v7.606H3.042V4.563A1.522,1.522,0,0,1,4.563,3.042ZM3.042,91.268V15.211H91.268V91.268Zm0,0" transform="translate(0)"/>
    <path id="Path_68021" data-name="Path 68021" d="M32,32h3.042v3.042H32Zm0,0" transform="translate(-25.916 -25.915)"/>
    <path id="Path_68022" data-name="Path 68022" d="M64,32h3.042v3.042H64Zm0,0" transform="translate(-51.831 -25.915)"/>
    <path id="Path_68023" data-name="Path 68023" d="M96,32h3.042v3.042H96Zm0,0" transform="translate(-77.747 -25.915)"/>
    <path id="Path_68024" data-name="Path 68024" d="M104,144.457v21.123l14.787-10.562Zm3.042,5.911,6.509,4.65-6.509,4.65Zm0,0" transform="translate(-84.226 -116.99)"/>
    <path id="Path_68025" data-name="Path 68025" d="M169.318,149.5h3.042a13.738,13.738,0,0,0-6.844-11.857l-1.524,2.632A10.693,10.693,0,0,1,169.318,149.5Zm0,0" transform="translate(-132.811 -111.469)"/>
    <path id="Path_68026" data-name="Path 68026" d="M139.42,128.431A13.834,13.834,0,0,0,136,128v3.042a10.7,10.7,0,0,1,2.665.336Zm0,0" transform="translate(-110.141 -103.662)"/>
    <path id="Path_68027" data-name="Path 68027" d="M51.775,135.549A19.775,19.775,0,1,0,32,115.775,19.8,19.8,0,0,0,51.775,135.549Zm0-36.507a16.732,16.732,0,1,1-16.732,16.732A16.752,16.752,0,0,1,51.775,99.042Zm0,0" transform="translate(-25.916 -77.746)"/>
    <path id="Path_68028" data-name="Path 68028" d="M391.981,376.942l-17.2-2.149,2.15,17.2,4.166-4.168,4.563,4.563,6.714-6.714-4.563-4.563Zm-3.9,8.728-2.412,2.412-4.563-4.563-1.92,1.918-.893-7.142,7.142.893-1.917,1.918Zm0,0" transform="translate(-303.523 -303.529)"/>
    <path id="Path_68029" data-name="Path 68029" d="M327.211,321.127v-3.042h-3.934l2.781-2.781-2.151-2.151-2.781,2.781V312h-3.042v3.934l-2.781-2.781-2.151,2.151,2.781,2.781H312v3.042h3.934l-2.781,2.781,2.151,2.151,2.781-2.781v3.934h3.042v-4.563h-2.781l-1.783-1.783v-2.519l1.783-1.783h2.519l1.783,1.783v2.781Zm0,0" transform="translate(-252.676 -252.676)"/>
    <path id="Path_68030" data-name="Path 68030" d="M79.155,137.07a4.53,4.53,0,0,0-.316-1.638l4.141-3.549a4.5,4.5,0,0,0,2.26.624,4.552,4.552,0,0,0,1.521-8.847V109.69H89.8v-9.127H86.761V96H83.719v4.563H80.676v9.127h3.042v13.97a4.507,4.507,0,0,0-2.726,5.922l-4.141,3.549a4.5,4.5,0,0,0-2.26-.624,4.552,4.552,0,0,0-1.521,8.847v8.167a4.552,4.552,0,0,0-1.364.777l-7.854-4.712a4.564,4.564,0,1,0-9.035-.91,4.5,4.5,0,0,0,.154,1.115l-7.6,5.957L40.3,144.235a4.733,4.733,0,1,0-2.507,1.772l7.893,8.4v2.72a4.563,4.563,0,1,0,3.042,0v-2.582l7.937-6.218a4.469,4.469,0,0,0,5.6-.144l7.854,4.712a4.566,4.566,0,1,0,5.993-3.374v-8.167A4.554,4.554,0,0,0,79.155,137.07Zm4.563-33.465h3.042v3.042H83.719ZM35.042,141.634a1.521,1.521,0,1,1,1.521,1.521A1.522,1.522,0,0,1,35.042,141.634Zm50.2-15.211a1.521,1.521,0,1,1-1.521,1.521A1.522,1.522,0,0,1,85.24,126.423Zm-10.648,9.127a1.521,1.521,0,1,1-1.521,1.521A1.522,1.522,0,0,1,74.592,135.549Zm-27.38,27.38a1.521,1.521,0,1,1,1.521-1.521A1.522,1.522,0,0,1,47.211,162.93ZM59.38,146.2a1.521,1.521,0,1,1,1.521-1.521A1.522,1.522,0,0,1,59.38,146.2Zm15.211,9.127a1.521,1.521,0,1,1,1.521-1.521A1.522,1.522,0,0,1,74.592,155.324Zm0,0" transform="translate(-25.916 -77.746)"/>
    <path id="Path_68031" data-name="Path 68031" d="M419.042,132.507h3.042v-21.3h3.042v-9.127h-3.042V96h-3.042v6.085H416v9.127h3.042Zm0-27.38h3.042v3.042h-3.042Zm0,0" transform="translate(-336.901 -77.746)"/>
    <path id="Path_68032" data-name="Path 68032" d="M355.042,132.507h3.042V120.338h3.042v-9.127h-3.042V96h-3.042v15.211H352v9.127h3.042Zm0-18.254h3.042V117.3h-3.042Zm0,0" transform="translate(-285.07 -77.746)"/>
  </g>
</svg>
