<svg xmlns="http://www.w3.org/2000/svg" width="94.675" height="94.674" viewBox="0 0 94.675 94.674">
  <g id="foley" transform="translate(0)">
    <path id="Path_67991" data-name="Path 67991" d="M185.026,161.246a15.779,15.779,0,0,0-31.558,0,3.156,3.156,0,0,1-3.156,3.156h-4.734A1.578,1.578,0,0,1,144,162.824v-1.578a25.247,25.247,0,0,1,50.493,0v1.578a1.578,1.578,0,0,1-1.578,1.578h-4.734A3.156,3.156,0,0,1,185.026,161.246Zm0,0" transform="translate(-115.598 -109.176)" fill="#fff"/>
    <path id="Path_67992" data-name="Path 67992" d="M195.156,312h3.156a3.156,3.156,0,0,1,3.156,3.156v15.779a3.156,3.156,0,0,1-3.156,3.156h-3.156A3.156,3.156,0,0,1,192,330.935V315.156A3.156,3.156,0,0,1,195.156,312Zm0,0" transform="translate(-154.13 -250.462)" fill="#fee101"/>
    <path id="Path_67993" data-name="Path 67993" d="M307.156,312h3.156a3.156,3.156,0,0,1,3.156,3.156v15.779a3.156,3.156,0,0,1-3.156,3.156h-3.156A3.156,3.156,0,0,1,304,330.935V315.156A3.156,3.156,0,0,1,307.156,312Zm0,0" transform="translate(-244.039 -250.462)" fill="#fee101"/>
    <path id="Path_67994" data-name="Path 67994" d="M17.467,8a9.468,9.468,0,0,1,9.467,9.467v9.467H8V17.467A9.468,9.468,0,0,1,17.467,8Zm0,0" transform="translate(-6.422 -6.422)" fill="#fee101"/>
    <path id="Path_67995" data-name="Path 67995" d="M8,104H26.935v18.935a9.467,9.467,0,1,1-18.935,0Zm0,0" transform="translate(-6.422 -83.487)" fill="#fee101"/>
    <path id="Path_67996" data-name="Path 67996" d="M153.578,72h6.312v6.312h-6.312A1.578,1.578,0,0,1,152,76.734V73.578A1.578,1.578,0,0,1,153.578,72Zm0,0" transform="translate(-122.02 -57.799)" fill="#fee101"/>
    <path id="Path_67997" data-name="Path 67997" d="M192,72h56.8v6.312H192Zm0,0" transform="translate(-154.13 -57.799)" fill="#fee101"/>
    <path id="Path_67998" data-name="Path 67998" d="M94.675,15.779V12.623H31.558A3.16,3.16,0,0,0,28.4,15.779H22.091V11.045A11.045,11.045,0,0,0,0,11.045v28.4a11.045,11.045,0,0,0,22.091,0V18.935H28.4a3.16,3.16,0,0,0,3.156,3.156H94.675V18.935H39.448V15.779ZM3.156,11.045a7.89,7.89,0,0,1,15.779,0v7.89H3.156Zm15.779,28.4a7.89,7.89,0,0,1-15.779,0V22.091H18.935ZM36.292,18.935H31.558V15.779h4.734Zm0,0" transform="translate(0)"/>
    <path id="Path_67999" data-name="Path 67999" d="M32,192h3.156v3.156H32Zm0,0" transform="translate(-25.688 -154.13)"/>
    <path id="Path_68000" data-name="Path 68000" d="M64,192h3.156v3.156H64Zm0,0" transform="translate(-51.377 -154.13)"/>
    <path id="Path_68001" data-name="Path 68001" d="M32,160h3.156v3.156H32Zm0,0" transform="translate(-25.688 -128.442)"/>
    <path id="Path_68002" data-name="Path 68002" d="M64,160h3.156v3.156H64Zm0,0" transform="translate(-51.377 -128.442)"/>
    <path id="Path_68003" data-name="Path 68003" d="M32,128h3.156v3.156H32Zm0,0" transform="translate(-25.688 -102.753)"/>
    <path id="Path_68004" data-name="Path 68004" d="M64,128h3.156v3.156H64Zm0,0" transform="translate(-51.377 -102.753)"/>
    <path id="Path_68005" data-name="Path 68005" d="M194.383,132.734v59.96a1.579,1.579,0,0,1-1.578,1.578H177.026a1.579,1.579,0,0,1-1.578-1.578V187.96a4.739,4.739,0,0,0,4.734-4.734v-6.312h1.578a4.739,4.739,0,0,0,4.734-4.734V159.558a3.16,3.16,0,0,0,3.156-3.156v-1.578a26.824,26.824,0,0,0-53.649,0V156.4a3.16,3.16,0,0,0,3.156,3.156v12.623a4.739,4.739,0,0,0,4.734,4.734h1.578v6.312a4.739,4.739,0,0,0,4.734,4.734h3.156a4.739,4.739,0,0,0,4.734-4.734V167.448a4.739,4.739,0,0,0-4.734-4.734H150.2a4.739,4.739,0,0,0-4.734,4.734v6.312H143.89a1.579,1.579,0,0,1-1.578-1.578V159.558h1.578a4.739,4.739,0,0,0,4.734-4.734,14.2,14.2,0,0,1,28.4,0,4.739,4.739,0,0,0,4.734,4.734h1.578v12.623a1.579,1.579,0,0,1-1.578,1.578h-1.578v-6.312a4.739,4.739,0,0,0-4.734-4.734h-3.156a4.739,4.739,0,0,0-4.734,4.734v15.779a4.739,4.739,0,0,0,4.734,4.734v4.734a4.739,4.739,0,0,0,4.734,4.734H192.8a4.739,4.739,0,0,0,4.734-4.734v-59.96a1.579,1.579,0,0,1,1.578-1.578h4.734V128h-4.734A4.739,4.739,0,0,0,194.383,132.734Zm-45.759,34.714a1.579,1.579,0,0,1,1.578-1.578h3.156a1.579,1.579,0,0,1,1.578,1.578v15.779a1.579,1.579,0,0,1-1.578,1.578H150.2a1.579,1.579,0,0,1-1.578-1.578Zm31.558-12.623a17.357,17.357,0,0,0-34.714,0,1.579,1.579,0,0,1-1.578,1.578h-4.734v-1.578a23.669,23.669,0,0,1,47.337,0V156.4h-4.734A1.579,1.579,0,0,1,180.181,154.824Zm-9.467,28.4V167.448a1.579,1.579,0,0,1,1.578-1.578h3.156a1.579,1.579,0,0,1,1.578,1.578v15.779a1.579,1.579,0,0,1-1.578,1.578h-3.156A1.579,1.579,0,0,1,170.714,183.227Zm0,0" transform="translate(-109.176 -102.753)"/>
  </g>
</svg>
