<svg xmlns="http://www.w3.org/2000/svg" width="94.314" height="94.632" viewBox="0 0 94.314 94.632">
  <g id="translation" transform="translate(0)">
    <path id="Path_70184" data-name="Path 70184" d="M32.082,0A32.081,32.081,0,1,1,0,32.081,32.082,32.082,0,0,1,32.082,0Z" transform="translate(0 0.118)" fill="#fee101"/>
    <path id="Path_67845" data-name="Path 67845" d="M208.161,32.345A32.382,32.382,0,0,1,176,64.69V0A32.382,32.382,0,0,1,208.161,32.345Z" transform="translate(-143.79 0)" fill="#f8bc0e"/>
    <path id="Path_67846" data-name="Path 67846" d="M136.144,117.512,127.272,90.9a2.772,2.772,0,0,0-5.26,0l-8.872,26.615a2.772,2.772,0,0,0,5.26,1.752l1.34-4.018h9.8l1.34,4.018a2.772,2.772,0,1,0,5.26-1.752ZM121.588,109.7l3.053-9.162,3.053,9.162Z" transform="translate(-92.431 -72.55)" fill="#fff"/>
    <path id="Path_67847" data-name="Path 67847" d="M185.748,121.018a2.773,2.773,0,0,1-3.506-1.754l-1.34-4.018H176V109.7h3.053L176,100.539V89a2.771,2.771,0,0,1,2.63,1.9l8.872,26.615A2.772,2.772,0,0,1,185.748,121.018Z" transform="translate(-143.79 -72.55)" fill="#fff"/>
    <path id="Path_67848" data-name="Path 67848" d="M226.692,194.345A32.346,32.346,0,1,1,194.161,162,32.375,32.375,0,0,1,226.692,194.345Z" transform="translate(-132.378 -132.058)" fill="#5c5c5c"/>
    <path id="Path_67849" data-name="Path 67849" d="M368.531,194.345A32.375,32.375,0,0,1,336,226.69V162A32.374,32.374,0,0,1,368.531,194.345Z" transform="translate(-274.217 -132.058)"/>
    <path id="Path_67850" data-name="Path 67850" d="M267.165,265h-7.393a2.772,2.772,0,1,0,0,5.545h4.478c-.435,4.759-1.985,12.383-6.21,15.764a2.772,2.772,0,1,0,3.464,4.33c8.338-6.67,8.434-22.207,8.434-22.866A2.773,2.773,0,0,0,267.165,265Z" transform="translate(-209.818 -216.02)" fill="#fff"/>
    <path id="Path_67851" data-name="Path 67851" d="M361.687,259.35h-3.142v-7.578a2.772,2.772,0,0,0-5.545,0v26.615a2.772,2.772,0,1,0,5.545,0V264.9h3.142a2.772,2.772,0,1,0,0-5.545Z" transform="translate(-288.075 -202.978)" fill="#fff"/>
    <path id="Path_67852" data-name="Path 67852" d="M386.559,53.331a2.773,2.773,0,0,1-2.773-2.772,12.028,12.028,0,0,0-12.014-12.014,2.772,2.772,0,1,1,0-5.545,17.579,17.579,0,0,1,17.559,17.559A2.772,2.772,0,0,1,386.559,53.331Z" transform="translate(-301.117 -26.901)"/>
    <path id="Path_67853" data-name="Path 67853" d="M50.559,389.331A17.579,17.579,0,0,1,33,371.772a2.772,2.772,0,0,1,5.545,0,12.028,12.028,0,0,0,12.014,12.014,2.772,2.772,0,1,1,0,5.545Z" transform="translate(-27.221 -300.798)" fill="#fee101"/>
  </g>
</svg>
