<svg id="saudi-arabia" xmlns="http://www.w3.org/2000/svg" width="21.51" height="14.093" viewBox="0 0 21.51 14.093">
  <path id="Path_199807" data-name="Path 199807" d="M19.9,102.369H1.611A1.611,1.611,0,0,1,0,100.758V89.887a1.611,1.611,0,0,1,1.611-1.611H19.9a1.611,1.611,0,0,1,1.611,1.611v10.871A1.611,1.611,0,0,1,19.9,102.369Z" transform="translate(0 -88.276)" fill="#73af00"/>
  <g id="Group_54019" data-name="Group 54019" transform="translate(4.253 2.967)">
    <path id="Path_199808" data-name="Path 199808" d="M102.356,167.59c.037.234.178.308.3.3a.3.3,0,0,0,.273-.284v-.8a.073.073,0,1,1,.146,0v.807a.292.292,0,0,0,.4.271l.073-.029c.007.675-.034,1.268-.035,1.279a.146.146,0,0,0,.135.156h.011a.146.146,0,0,0,.146-.136c0-.048.048-.7.035-1.416l.044-.018a.147.147,0,0,1,.12.005.418.418,0,0,0,.482-.078l.026-.026a.436.436,0,0,0,.106-.449l-.124-.373a.146.146,0,0,0,.108-.271l-.292-.146a.146.146,0,0,0-.2.177l.235.706a.146.146,0,0,1-.035.15l-.026.026a.126.126,0,0,1-.145.023.437.437,0,0,0-.3-.03,5.042,5.042,0,0,0-.179-1.26.146.146,0,0,0-.277.092,5.026,5.026,0,0,1,.167,1.276l-.175.07V166.8a.366.366,0,1,0-.731,0v.708l-.149-.737a.146.146,0,1,0-.287.058Z" transform="translate(-102.158 -165.768)" fill="#f5f5f5"/>
    <path id="Path_199809" data-name="Path 199809" d="M109.306,163.033a.146.146,0,0,0,.146-.146v-.146a.146.146,0,1,0-.292,0v.146A.146.146,0,0,0,109.306,163.033Z" transform="translate(-108.827 -162.439)" fill="#f5f5f5"/>
    <path id="Path_199810" data-name="Path 199810" d="M144.1,162.886h.146a.146.146,0,1,0,0-.292H144.1a.146.146,0,1,0,0,.292Z" transform="translate(-142.162 -162.439)" fill="#f5f5f5"/>
    <path id="Path_199811" data-name="Path 199811" d="M106.481,214.81l-.731.439a.146.146,0,1,0,.15.251l.731-.439a.146.146,0,1,0-.15-.251Z" transform="translate(-105.492 -212.441)" fill="#f5f5f5"/>
    <path id="Path_199812" data-name="Path 199812" d="M118.378,168.4l0,0a.334.334,0,0,0,.067.137.287.287,0,0,0,.249.1.4.4,0,0,0,.3-.16l.031.018a.277.277,0,0,0,.257-.008.555.555,0,0,0,.262-.515.15.15,0,0,0-.152-.138.147.147,0,0,0-.14.152s0,.175-.1.24a.356.356,0,0,1-.046-.123.146.146,0,0,0-.29.024c0,.021,0,.209-.15.225a.357.357,0,0,1,0-.191.146.146,0,0,0-.224-.155l-.082.055c-.039-.848-.128-1.836-.129-1.848a.146.146,0,1,0-.291.027c0,.014.1,1.157.136,2.029l-.022.022a.377.377,0,0,0-.32-.252.534.534,0,0,0-.515.326.346.346,0,0,0,.112.436.487.487,0,0,0,.436.02,1.222,1.222,0,0,1-.238.451.613.613,0,0,1-.467.238.384.384,0,0,1-.284-.121.835.835,0,0,1-.155-.523.146.146,0,0,0-.138-.154.143.143,0,0,0-.154.138,1.121,1.121,0,0,0,.23.735.67.67,0,0,0,.489.217h.029a.891.891,0,0,0,.671-.34,1.512,1.512,0,0,0,.335-.749,1.657,1.657,0,0,1-.7,1.313.73.73,0,0,1-.732.054.627.627,0,0,1-.322-.618.146.146,0,0,0-.29-.036.918.918,0,0,0,.482.917.994.994,0,0,0,.443.105,1.082,1.082,0,0,0,.573-.173,1.944,1.944,0,0,0,.84-1.562C118.383,168.609,118.381,168.506,118.378,168.4Zm-.882.151c-.026-.017-.006-.073,0-.083a.248.248,0,0,1,.2-.144h.012c.019,0,.068.006.09.117,0,.012,0,.024.006.036C117.644,168.571,117.534,168.574,117.5,168.549Z" transform="translate(-115.418 -165.771)" fill="#f5f5f5"/>
    <path id="Path_199813" data-name="Path 199813" d="M101.778,243.238a.146.146,0,0,0-.2.052.3.3,0,0,1-.025.035l0-.012a.983.983,0,0,1,0-.5.146.146,0,0,0-.282-.075,1.259,1.259,0,0,0,0,.674c.067.179.17.224.245.23h.02a.384.384,0,0,0,.291-.209A.146.146,0,0,0,101.778,243.238Z" transform="translate(-101.225 -239.115)" fill="#f5f5f5"/>
    <path id="Path_199814" data-name="Path 199814" d="M175.275,163.91a.145.145,0,0,0,.09-.031l.737-.579a.141.141,0,0,0,.024-.028.366.366,0,1,0-.42-.032l-.522.41a.146.146,0,0,0,.09.261Zm.664-1.023a.073.073,0,1,1-.073.073A.073.073,0,0,1,175.939,162.886Z" transform="translate(-172.024 -162.439)" fill="#f5f5f5"/>
    <path id="Path_199815" data-name="Path 199815" d="M185.365,190.439a.146.146,0,0,0-.185.092.447.447,0,0,0,.057.431.3.3,0,0,0,.218.083.642.642,0,0,0,.2-.037.146.146,0,1,0-.093-.277.509.509,0,0,1-.119.026.28.28,0,0,1,.012-.134A.146.146,0,0,0,185.365,190.439Z" transform="translate(-181.623 -189.106)" fill="#f5f5f5"/>
    <path id="Path_199816" data-name="Path 199816" d="M227.721,163.026a.146.146,0,0,0,.181-.1l.085-.292a.146.146,0,1,0-.281-.082l-.085.292A.146.146,0,0,0,227.721,163.026Z" transform="translate(-222.306 -162.298)" fill="#f5f5f5"/>
    <path id="Path_199817" data-name="Path 199817" d="M205.96,159.608a.146.146,0,1,0,.148-.252c-.029-.017-.025-.066-.024-.075a.115.115,0,0,1,.067-.1.146.146,0,0,0-.087-.279.4.4,0,0,0-.271.344A.36.36,0,0,0,205.96,159.608Z" transform="translate(-201.397 -158.897)" fill="#f5f5f5"/>
    <path id="Path_199818" data-name="Path 199818" d="M178.9,232.189a.146.146,0,0,0-.027.29.275.275,0,0,1,.027.149.146.146,0,1,0,.292,0C179.193,232.194,178.912,232.189,178.9,232.189Z" transform="translate(-175.497 -229.11)" fill="#f5f5f5"/>
    <path id="Path_199819" data-name="Path 199819" d="M234.718,208.248a.337.337,0,0,0,.055,0,.5.5,0,0,0,.346-.173.146.146,0,1,0-.207-.207c-.087.088-.134.089-.147.087-.028,0-.053-.04-.059-.05a.146.146,0,0,0-.261.132A.4.4,0,0,0,234.718,208.248Z" transform="translate(-228.835 -205.774)" fill="#f5f5f5"/>
    <path id="Path_199820" data-name="Path 199820" d="M293.872,190.92l0-.006a.146.146,0,0,0-.277.094.327.327,0,0,0,.238.228l.032,0a.358.358,0,0,0,.283-.2.146.146,0,1,0-.243-.162A.444.444,0,0,1,293.872,190.92Z" transform="translate(-285.504 -189.474)" fill="#f5f5f5"/>
    <path id="Path_199821" data-name="Path 199821" d="M203.577,169.867c0-.623-.027-1.208-.065-1.721a7.4,7.4,0,0,1,.513,1.041.146.146,0,0,0,.137.095.148.148,0,0,0,.051-.009.146.146,0,0,0,.086-.188,9.682,9.682,0,0,0-.845-1.6c-.08-.788-.169-1.287-.171-1.3a.146.146,0,0,0-.288.052c0,.006.047.264.1.7-.112-.167-.217-.317-.3-.441l.007,0a.146.146,0,1,0,.093-.277l-.439-.146a.145.145,0,0,0-.165.053.147.147,0,0,0-.021.045.319.319,0,0,0-.305-.073.249.249,0,0,0-.14.26,1.321,1.321,0,0,0,.1.414c.086.244.14.423.049.509a.16.16,0,0,1-.15.053c-.09-.023-.179-.143-.239-.321a.136.136,0,0,0-.012-.02,2.486,2.486,0,0,0-.045-.809.146.146,0,0,0-.287.057,1.392,1.392,0,0,1-.077,1.042.262.262,0,0,1-.219.1.084.084,0,0,1-.07-.033,1.409,1.409,0,0,1-.078-.824.146.146,0,0,0-.145-.167c-.252,0-.347.286-.431.539-.037.111-.106.317-.154.339-.088,0-.146-.26-.146-.439a.146.146,0,0,0-.146-.146h0a.146.146,0,0,0-.146.146c0,.337.115.731.439.731.241,0,.339-.263.42-.507a.916.916,0,0,0,.166.52.375.375,0,0,0,.291.133.556.556,0,0,0,.445-.206.671.671,0,0,0,.054-.081.545.545,0,0,0,.306.23.421.421,0,0,0,.1.013.464.464,0,0,0,.318-.136.428.428,0,0,0,.049-.059.394.394,0,0,0,.108.016.592.592,0,0,0,.3-.093.146.146,0,0,0-.157-.247.31.31,0,0,1-.165.044,1.509,1.509,0,0,0-.111-.48,2.034,2.034,0,0,1-.076-.244l.034.031a.146.146,0,0,0,.207,0,.14.14,0,0,0,.021-.032c.152.209.463.647.784,1.153.061.622.115,1.414.115,2.284a.146.146,0,0,0,.292,0Z" transform="translate(-195.496 -165.764)" fill="#f5f5f5"/>
    <path id="Path_199822" data-name="Path 199822" d="M293.732,166.66a.146.146,0,1,0,.292,0,1.491,1.491,0,0,0-.162-.5.146.146,0,1,0-.262.131A1.3,1.3,0,0,1,293.732,166.66Z" transform="translate(-285.505 -165.774)" fill="#f5f5f5"/>
    <path id="Path_199823" data-name="Path 199823" d="M263.066,249.9a.146.146,0,0,0-.2.064.421.421,0,0,1-.061.087.816.816,0,0,1,.038-.27.146.146,0,0,0-.243-.146l-.292.292a.146.146,0,1,0,.207.207l.007-.007a.3.3,0,0,0,.078.154.267.267,0,0,0,.19.084.26.26,0,0,0,.04,0,.476.476,0,0,0,.3-.265A.146.146,0,0,0,263.066,249.9Z" transform="translate(-255.504 -245.779)" fill="#f5f5f5"/>
    <path id="Path_199824" data-name="Path 199824" d="M169.665,205.382h-1.03q.014-.055.028-.1c.411-.085.655-.218.727-.395a.327.327,0,0,0-.055-.328.362.362,0,0,0-.37-.158c-.208.042-.393.266-.526.624a1.68,1.68,0,0,0-.844.365,2.265,2.265,0,0,0-.3-.972.146.146,0,1,0-.243.162,2.111,2.111,0,0,1,.268,1.088,1.157,1.157,0,0,1-.877,1.17c-.164,0-.236-.2-.268-.36a1.679,1.679,0,0,0,.7-.774,1.163,1.163,0,0,0-.1-.792l-.011-.025.009.009a.146.146,0,0,0,.207-.207c-.085-.086-.251-.22-.4-.157a.249.249,0,0,0-.14.26.622.622,0,0,0,.068.235.884.884,0,0,1,.082.607,1.237,1.237,0,0,1-.479.528A.144.144,0,0,0,166,206.1h0a.146.146,0,0,0-.146.146c0,.026,0,.054,0,.083a7.688,7.688,0,0,1-.941.515.146.146,0,0,0,.061.279.144.144,0,0,0,.06-.013,8.426,8.426,0,0,0,.873-.468.569.569,0,0,0,.528.481,1.242,1.242,0,0,0,.978-.715.852.852,0,0,0,.1.14,1.648,1.648,0,0,0,1.117.429.146.146,0,0,0,.01-.292.313.313,0,0,1-.182-.089.251.251,0,0,1-.048-.192c.015-.18.6-.315,1.108-.323a.146.146,0,0,0,.136-.1l.146-.411a.146.146,0,0,0-.138-.2Zm-.642-.7h.011c.014,0,.036.007.065.047.006.007.023.033.019.044-.017.041-.118.11-.328.172C168.883,204.764,168.974,204.694,169.023,204.684Zm-.883,1.922a.9.9,0,0,1-.4-.246.621.621,0,0,1-.13-.515.429.429,0,0,1,.03-.062c.206-.019.756.062.794.22a.491.491,0,0,0-.309.381A.616.616,0,0,0,168.14,206.606Z" transform="translate(-162.159 -202.44)" fill="#f5f5f5"/>
    <path id="Path_199825" data-name="Path 199825" d="M291.269,166.608l-.146-.439a.146.146,0,0,0-.284.061c.1,1.009.292,2.976.292,3.2,0,.2-.36.6-.943.893a.146.146,0,0,0,.131.262c.532-.266,1.1-.741,1.1-1.154,0-.216-.149-1.77-.235-2.643A.146.146,0,0,0,291.269,166.608Z" transform="translate(-282.172 -165.768)" fill="#f5f5f5"/>
    <path id="Path_199826" data-name="Path 199826" d="M335.827,193.937a.146.146,0,0,0,.245-.139.738.738,0,0,1-.021-.284.148.148,0,0,0,.152-.125.146.146,0,0,0-.124-.165.264.264,0,0,0-.241.081.335.335,0,0,0-.074.157l-.169-.169a.146.146,0,1,0-.207.207Z" transform="translate(-325.51 -191.778)" fill="#f5f5f5"/>
    <path id="Path_199827" data-name="Path 199827" d="M340.738,213.291l-.548.393a.146.146,0,0,0,.17.238l.548-.393a.146.146,0,1,0-.17-.238Z" transform="translate(-330.092 -210.979)" fill="#f5f5f5"/>
    <path id="Path_199828" data-name="Path 199828" d="M352.773,225.718a.146.146,0,0,0,.013.194.405.405,0,0,1,.03.21.146.146,0,0,0,.141.151h.005a.146.146,0,0,0,.146-.141c.011-.3-.087-.407-.129-.44A.146.146,0,0,0,352.773,225.718Z" transform="translate(-342.175 -222.857)" fill="#f5f5f5"/>
    <path id="Path_199829" data-name="Path 199829" d="M324.045,169.713a.146.146,0,0,0,.146-.146c0-.216-.011-.457-.029-.707a5.338,5.338,0,0,1,.343.637.146.146,0,0,0,.134.089.144.144,0,0,0,.057-.012.146.146,0,0,0,.077-.192,8.045,8.045,0,0,0-.669-1.153c-.057-.537-.132-1.062-.19-1.44a.141.141,0,0,0,.091-.023.144.144,0,0,0,.065-.132.142.142,0,0,0,.016.042.532.532,0,0,1,.053.358.146.146,0,0,0,.114.173l.03,0a.146.146,0,0,0,.143-.117.828.828,0,0,0-.093-.574.147.147,0,0,0-.2-.045.145.145,0,0,0-.065.132.143.143,0,0,0-.016-.042l-.247-.384a.146.146,0,0,0-.267.1c0,.012.114.653.213,1.426-.112-.158-.224-.313-.333-.461-.018-.221-.035-.426-.051-.595l.024-.009a.146.146,0,0,0,.065-.2l-.146-.292a.146.146,0,0,0-.276.08c.017.174.036.368.053.57-.092-.122-.178-.233-.251-.328a.146.146,0,0,0-.03-.242l-.292-.146a.146.146,0,0,0-.18.222c.008.01.368.461.8,1.043a11.752,11.752,0,0,1,.054,2.181c-.013.039-.035.084-.056.086-.088.012-.3-.185-.405-.4a.2.2,0,0,0-.2-.132c-.157.01-.218.183-.33.5a2.058,2.058,0,0,1-.291.619,1.66,1.66,0,0,1-.182-.576.145.145,0,0,0,.282-.049c0-.218-.152-1.878-.238-2.788a.146.146,0,0,0,.084-.182l-.146-.439a.146.146,0,0,0-.284.06c.1,1.043.286,3.057.291,3.335v-.007a.146.146,0,1,0-.289.041c.043.3.152.813.4.9a.244.244,0,0,0,.078.013.287.287,0,0,0,.206-.1,2.108,2.108,0,0,0,.362-.73c.022-.061.047-.132.071-.194.134.2.368.44.605.421a.359.359,0,0,0,.313-.285,8.233,8.233,0,0,0-.005-1.825c.123.173.246.349.364.524.046.438.078.876.078,1.237A.146.146,0,0,0,324.045,169.713Z" transform="translate(-312.172 -165.775)" fill="#f5f5f5"/>
    <path id="Path_199830" data-name="Path 199830" d="M382.381,169.357c-.1-.772-.248-1.665-.339-2.214a.144.144,0,0,0,.122-.026.146.146,0,0,0,.028-.2l-.265-.347a.146.146,0,0,0-.26.114c0,.015.263,1.516.425,2.717a1.37,1.37,0,0,1-.241,1.1.647.647,0,0,1-.536.2.146.146,0,1,0-.018.292l.073,0a.923.923,0,0,0,.7-.295A1.632,1.632,0,0,0,382.381,169.357Z" transform="translate(-369.398 -166.188)" fill="#f5f5f5"/>
    <path id="Path_199831" data-name="Path 199831" d="M371.053,256.178a.148.148,0,0,0,.007.205.061.061,0,0,1,.017.03.069.069,0,0,1-.022.033.146.146,0,1,0,.207.207.332.332,0,0,0,.108-.249.348.348,0,0,0-.115-.238A.145.145,0,0,0,371.053,256.178Z" transform="translate(-359.678 -252.045)" fill="#f5f5f5"/>
    <path id="Path_199832" data-name="Path 199832" d="M153.021,326.912H152v-.146a.146.146,0,1,0-.292,0v.146h-7.748a2.041,2.041,0,0,0,1.316.439h6.433v.292a.146.146,0,0,0,.146.146h1.17a.439.439,0,1,0,0-.877Zm0,.585H152v-.146h1.17l-.026-.079a.142.142,0,0,1,.026.079A.146.146,0,0,1,153.021,327.5Z" transform="translate(-142.162 -319.574)" fill="#f5f5f5"/>
  </g>
</svg>
