<svg xmlns="http://www.w3.org/2000/svg" width="216" height="121.292" viewBox="0 0 216 121.292">
  <g id="Group_57031" data-name="Group 57031" transform="translate(11516 -10676.748)">
    <g id="Group_69" data-name="Group 69" transform="translate(-11442.639 10678.789)">
      <circle id="Ellipse_20" data-name="Ellipse 20" cx="45" cy="45" r="45" transform="translate(-0.361 -0.042)" fill="#fee101"/>
      <g id="tick" transform="translate(23.689 29.28)">
        <g id="Group_63" data-name="Group 63" transform="translate(0 0)">
          <path id="Path_129" data-name="Path 129" d="M41.472,68.614a2.1,2.1,0,0,0-2.976,0L13.283,93.826,3.592,84.135A2.1,2.1,0,0,0,.616,87.111L11.8,98.29a2.105,2.105,0,0,0,2.976,0l26.7-26.7A2.1,2.1,0,0,0,41.472,68.614Z" transform="translate(0 -67.997)" fill="#fff"/>
        </g>
      </g>
    </g>
    <g id="Group_62" data-name="Group 62" transform="translate(-11507.595 10678.247)">
      <path id="SVGCleanerId_0_1_" d="M202.889,71.265a25.108,25.108,0,0,1-3.507-.9c-8.129-2.734-12.725-9.376-14.237-17.926a.74.74,0,0,0-1.456,0c-1.757,9.936-7.606,16.962-17.693,18.834a.74.74,0,0,0,0,1.453c9.994,1.849,15.945,8.862,17.7,18.718a.739.739,0,0,0,1.456,0c.892-5.083,3.395-11.988,10.258-16.02a22.917,22.917,0,0,1,7.484-2.708.739.739,0,0,0,0-1.454Z" transform="translate(-165.395 -51.836)" fill="#fc0"/>
    </g>
    <g id="Group_64" data-name="Group 64" transform="translate(-11466.44 10768.607)">
      <path id="SVGCleanerId_0_1_2" data-name="SVGCleanerId_0_1_" d="M192.828,66.052a18.37,18.37,0,0,1-2.566-.655c-5.948-2-9.311-6.86-10.417-13.116a.541.541,0,0,0-1.065,0c-1.286,7.27-5.565,12.411-12.945,13.78a.541.541,0,0,0,0,1.063c7.312,1.353,11.667,6.484,12.948,13.7a.541.541,0,0,0,1.065,0c.652-3.719,2.484-8.772,7.505-11.721a16.767,16.767,0,0,1,5.476-1.982.541.541,0,0,0,0-1.064Z" transform="translate(-165.395 -51.836)" fill="#fc0"/>
    </g>
    <g id="Group_65" data-name="Group 65" transform="translate(-11329.559 10712.243)">
      <path id="SVGCleanerId_0_1_3" data-name="SVGCleanerId_0_1_" d="M194.482,66.909a19.478,19.478,0,0,1-2.72-.695c-6.307-2.121-9.872-7.274-11.045-13.907a.574.574,0,0,0-1.129,0c-1.363,7.708-5.9,13.159-13.726,14.612a.574.574,0,0,0,0,1.128c7.753,1.434,12.37,6.875,13.729,14.521a.573.573,0,0,0,1.129,0c.692-3.943,2.634-9.3,7.958-12.428a17.779,17.779,0,0,1,5.806-2.1.573.573,0,0,0,0-1.128Z" transform="translate(-165.395 -51.836)" fill="#fc0"/>
    </g>
    <circle id="Ellipse_21" data-name="Ellipse 21" cx="2" cy="2" r="2" transform="translate(-11309 10707.748)" fill="#fc0"/>
    <ellipse id="Ellipse_23" data-name="Ellipse 23" cx="2" cy="2.5" rx="2" ry="2.5" transform="translate(-11478 10676.748)" fill="#fc0"/>
    <circle id="Ellipse_26" data-name="Ellipse 26" cx="2" cy="2" r="2" transform="translate(-11463 10766.748)" fill="#fc0"/>
    <circle id="Ellipse_24" data-name="Ellipse 24" cx="2" cy="2" r="2" transform="translate(-11516 10689.748)" fill="#fc0"/>
    <circle id="Ellipse_22" data-name="Ellipse 22" cx="2" cy="2" r="2" transform="translate(-11337 10732.748)" fill="#fc0"/>
  </g>
</svg>
