<svg xmlns="http://www.w3.org/2000/svg" width="40.402" height="34.768" viewBox="0 0 40.402 34.768">
  <g id="Group_53853" data-name="Group 53853" transform="translate(0 0)">
    <path id="Path_199598" data-name="Path 199598" d="M33.08,12.167c.013-.228.021-.46.021-.7A11.447,11.447,0,0,0,10.7,8.114c-.17-.009-.335-.013-.5-.013a10.1,10.1,0,0,0,0,20.2h6.067a.673.673,0,1,0,0-1.347H10.208a8.753,8.753,0,0,1,0-17.507,9.041,9.041,0,0,1,.929.051.687.687,0,0,0,.72-.506,10.1,10.1,0,0,1,19.9,2.475,9.134,9.134,0,0,1-.081,1.256.673.673,0,0,0,.667.764h.088a6.733,6.733,0,0,1,0,13.467H24.393a.673.673,0,1,0,0,1.347h8.035a8.08,8.08,0,0,0,.652-16.134Z" transform="translate(-0.108 0)" fill="#acafb8"/>
    <path id="Path_199599" data-name="Path 199599" d="M160.128,157.021l-8.094-8.093-8.094,8.093.953.953,6.468-6.469,0,19.406h1.347l0-19.406,6.468,6.469Z" transform="translate(-131.834 -136.393)" fill="#acafb8" stroke="#acafb8" stroke-width="0.5"/>
  </g>
</svg>
